<?xml version="1.0" encoding="UTF-8" standalone="no"?>
<!-- Created with Inkscape (http://www.inkscape.org/) -->

<svg
   xmlns:dc="http://purl.org/dc/elements/1.1/"
   xmlns:cc="http://creativecommons.org/ns#"
   xmlns:rdf="http://www.w3.org/1999/02/22-rdf-syntax-ns#"
   xmlns:svg="http://www.w3.org/2000/svg"
   xmlns="http://www.w3.org/2000/svg"
   xmlns:sodipodi="http://sodipodi.sourceforge.net/DTD/sodipodi-0.dtd"
   xmlns:inkscape="http://www.inkscape.org/namespaces/inkscape"
   width="165.72145mm"
   height="101.69067mm"
   viewBox="0 0 165.72145 101.69067"
   version="1.1"
   id="svg8"
   inkscape:version="0.92.2 5c3e80d, 2017-08-06"
   sodipodi:docname="non-vector.svg">
  <defs
     id="defs2">
    <marker
       inkscape:stockid="Arrow1Mend"
       orient="auto"
       refY="0"
       refX="0"
       id="Arrow1Mend"
       style="overflow:visible"
       inkscape:isstock="true">
      <path
         id="path852"
         d="M 0,0 5,-5 -12.5,0 5,5 Z"
         style="fill:#000000;fill-opacity:1;fill-rule:evenodd;stroke:#000000;stroke-width:1.00000003pt;stroke-opacity:1"
         transform="matrix(-0.4,0,0,-0.4,-4,0)"
         inkscape:connector-curvature="0" />
    </marker>
    <marker
       inkscape:stockid="Arrow1Lend"
       orient="auto"
       refY="0"
       refX="0"
       id="Arrow1Lend"
       style="overflow:visible"
       inkscape:isstock="true">
      <path
         id="path846"
         d="M 0,0 5,-5 -12.5,0 5,5 Z"
         style="fill:#000000;fill-opacity:1;fill-rule:evenodd;stroke:#000000;stroke-width:1.00000003pt;stroke-opacity:1"
         transform="matrix(-0.8,0,0,-0.8,-10,0)"
         inkscape:connector-curvature="0" />
    </marker>
    <marker
       inkscape:stockid="Arrow1Mend"
       orient="auto"
       refY="0"
       refX="0"
       id="marker1888"
       style="overflow:visible"
       inkscape:isstock="true">
      <path
         id="path1886"
         d="M 0,0 5,-5 -12.5,0 5,5 Z"
         style="fill:#000000;fill-opacity:1;fill-rule:evenodd;stroke:#000000;stroke-width:1.00000003pt;stroke-opacity:1"
         transform="matrix(-0.4,0,0,-0.4,-4,0)"
         inkscape:connector-curvature="0" />
    </marker>
    <marker
       inkscape:stockid="Arrow1Mend"
       orient="auto"
       refY="0"
       refX="0"
       id="marker1720"
       style="overflow:visible"
       inkscape:isstock="true">
      <path
         id="path1718"
         d="M 0,0 5,-5 -12.5,0 5,5 Z"
         style="fill:#000000;fill-opacity:1;fill-rule:evenodd;stroke:#000000;stroke-width:1.00000003pt;stroke-opacity:1"
         transform="matrix(-0.4,0,0,-0.4,-4,0)"
         inkscape:connector-curvature="0" />
    </marker>
    <marker
       inkscape:stockid="Arrow1Mend"
       orient="auto"
       refY="0"
       refX="0"
       id="marker1671"
       style="overflow:visible"
       inkscape:isstock="true">
      <path
         id="path1669"
         d="M 0,0 5,-5 -12.5,0 5,5 Z"
         style="fill:#000000;fill-opacity:1;fill-rule:evenodd;stroke:#000000;stroke-width:1.00000003pt;stroke-opacity:1"
         transform="matrix(-0.4,0,0,-0.4,-4,0)"
         inkscape:connector-curvature="0" />
    </marker>
    <marker
       inkscape:stockid="Arrow1Mend"
       orient="auto"
       refY="0"
       refX="0"
       id="marker1637"
       style="overflow:visible"
       inkscape:isstock="true">
      <path
         id="path1635"
         d="M 0,0 5,-5 -12.5,0 5,5 Z"
         style="fill:#000000;fill-opacity:1;fill-rule:evenodd;stroke:#000000;stroke-width:1.00000003pt;stroke-opacity:1"
         transform="matrix(-0.4,0,0,-0.4,-4,0)"
         inkscape:connector-curvature="0" />
    </marker>
    <marker
       inkscape:isstock="true"
       style="overflow:visible"
       id="Arrow1Lend-3"
       refX="0"
       refY="0"
       orient="auto"
       inkscape:stockid="Arrow1Lend">
      <path
         inkscape:connector-curvature="0"
         transform="matrix(-0.8,0,0,-0.8,-10,0)"
         style="fill:#000000;fill-opacity:1;fill-rule:evenodd;stroke:#000000;stroke-width:1.00000003pt;stroke-opacity:1"
         d="M 0,0 5,-5 -12.5,0 5,5 Z"
         id="path846-8" />
    </marker>
  </defs>
  <sodipodi:namedview
     id="base"
     pagecolor="#ffffff"
     bordercolor="#666666"
     borderopacity="1.0"
     inkscape:pageopacity="0.0"
     inkscape:pageshadow="2"
     inkscape:zoom="1.4142136"
     inkscape:cx="242.57105"
     inkscape:cy="170.41631"
     inkscape:document-units="mm"
     inkscape:current-layer="layer1"
     showgrid="false"
     fit-margin-top="0"
     fit-margin-left="0"
     fit-margin-right="0"
     fit-margin-bottom="0"
     inkscape:window-width="1920"
     inkscape:window-height="960"
     inkscape:window-x="0"
     inkscape:window-y="1"
     inkscape:window-maximized="1" />
  <metadata
     id="metadata5">
    <rdf:RDF>
      <cc:Work
         rdf:about="">
        <dc:format>image/svg+xml</dc:format>
        <dc:type
           rdf:resource="http://purl.org/dc/dcmitype/StillImage" />
        <dc:title></dc:title>
      </cc:Work>
    </rdf:RDF>
  </metadata>
  <g
     inkscape:label="Layer 1"
     inkscape:groupmode="layer"
     id="layer1"
     transform="translate(2.8874936,-20.509672)">
    <rect
       y="20.509672"
       x="79.010002"
       height="9.8889713"
       width="9.5548811"
       id="rect1259"
       style="fill:#ffeeaa;stroke:none;stroke-width:1;stroke-miterlimit:4;stroke-dasharray:none" />
    <rect
       style="fill:#ffd5d5;stroke:none;stroke-width:1;stroke-miterlimit:4;stroke-dasharray:none"
       id="rect815"
       width="21.314745"
       height="9.8889713"
       x="37.551369"
       y="20.509672" />
    <g
       aria-label="z[0]"
       style="font-style:normal;font-weight:normal;font-size:8.36843777px;line-height:1.25;font-family:sans-serif;letter-spacing:0px;word-spacing:0px;fill:#000000;fill-opacity:1;stroke:none;stroke-width:0.20921095"
       id="text819">
      <path
         d="m 39.633912,23.633743 h 3.322041 v 0.686473 l -2.627395,3.285266 h 2.627395 v 0.612923 h -3.420108 v -0.694646 l 2.627395,-3.289352 h -2.529328 z"
         style="font-style:normal;font-variant:normal;font-weight:normal;font-stretch:normal;font-family:FreeMono;-inkscape-font-specification:FreeMono;stroke-width:0.20921095"
         id="path3632" />
      <path
         d="m 45.632382,21.860353 h 1.732528 v 0.58432 h -0.980676 v 6.292673 h 0.980676 v 0.58432 h -1.732528 z"
         style="font-style:normal;font-variant:normal;font-weight:normal;font-stretch:normal;font-family:FreeMono;-inkscape-font-specification:FreeMono;stroke-width:0.20921095"
         id="path3634" />
      <path
         d="m 50.748244,25.153791 q 0,-0.224738 0.155273,-0.388184 0.15936,-0.163446 0.380012,-0.163446 0.228825,0 0.392271,0.163446 0.163446,0.163446 0.163446,0.388184 0,0.228825 -0.163446,0.388185 -0.15936,0.15936 -0.392271,0.15936 -0.228824,0 -0.384098,-0.155274 -0.151187,-0.155274 -0.151187,-0.392271 z m 0.543458,-2.492552 q -0.576148,0 -0.862178,0.621095 -0.281945,0.621095 -0.281945,1.891888 0,1.266707 0.281945,1.887802 0.28603,0.621095 0.862178,0.621095 0.580233,0 0.862178,-0.621095 0.28603,-0.621095 0.28603,-1.887802 0,-1.270793 -0.28603,-1.891888 -0.281945,-0.621095 -0.862178,-0.621095 z m 0,-0.653784 q 0.97659,0 1.4751,0.800886 0.502597,0.800885 0.502597,2.365881 0,1.56091 -0.502597,2.361796 -0.49851,0.800885 -1.4751,0.800885 -0.976591,0 -1.475101,-0.800885 -0.49851,-0.800886 -0.49851,-2.361796 0,-1.564996 0.49851,-2.365881 0.49851,-0.800886 1.475101,-0.800886 z"
         style="font-style:normal;font-variant:normal;font-weight:normal;font-stretch:normal;font-family:FreeMono;-inkscape-font-specification:FreeMono;stroke-width:0.20921095"
         id="path3636" />
      <path
         d="m 56.955108,21.860353 v 7.461313 h -1.732529 v -0.58432 h 0.980677 v -6.292673 h -0.980677 v -0.58432 z"
         style="font-style:normal;font-variant:normal;font-weight:normal;font-stretch:normal;font-family:FreeMono;-inkscape-font-specification:FreeMono;stroke-width:0.20921095"
         id="path3638" />
    </g>
    <rect
       y="20.509672"
       x="101.96333"
       height="9.8889713"
       width="21.314745"
       id="rect821"
       style="fill:#afe9af;stroke:none;stroke-width:1;stroke-miterlimit:4;stroke-dasharray:none" />
    <g
       aria-label="x[0]"
       style="font-style:normal;font-weight:normal;font-size:8.36843777px;line-height:1.25;font-family:sans-serif;letter-spacing:0px;word-spacing:0px;fill:#000000;fill-opacity:1;stroke:none;stroke-width:0.20921095"
       id="text825">
      <path
         d="m 107.68663,23.641915 -1.63854,2.190177 1.7979,2.386313 h -0.87035 l -1.34025,-1.834682 -1.33618,1.834682 h -0.87035 l 1.79791,-2.386313 -1.63855,-2.190177 h 0.83358 l 1.21359,1.654892 1.20541,-1.654892 z"
         style="font-style:normal;font-variant:normal;font-weight:normal;font-stretch:normal;font-family:FreeMono;-inkscape-font-specification:FreeMono;stroke-width:0.20921095"
         id="path3623" />
      <path
         d="m 110.04434,21.860353 h 1.73253 v 0.58432 h -0.98068 v 6.292673 h 0.98068 v 0.58432 h -1.73253 z"
         style="font-style:normal;font-variant:normal;font-weight:normal;font-stretch:normal;font-family:FreeMono;-inkscape-font-specification:FreeMono;stroke-width:0.20921095"
         id="path3625" />
      <path
         d="m 115.1602,25.153791 q 0,-0.224738 0.15528,-0.388184 0.15936,-0.163446 0.38001,-0.163446 0.22882,0 0.39227,0.163446 0.16345,0.163446 0.16345,0.388184 0,0.228825 -0.16345,0.388185 -0.15936,0.15936 -0.39227,0.15936 -0.22882,0 -0.3841,-0.155274 -0.15119,-0.155274 -0.15119,-0.392271 z m 0.54346,-2.492552 q -0.57615,0 -0.86218,0.621095 -0.28194,0.621095 -0.28194,1.891888 0,1.266707 0.28194,1.887802 0.28603,0.621095 0.86218,0.621095 0.58024,0 0.86218,-0.621095 0.28603,-0.621095 0.28603,-1.887802 0,-1.270793 -0.28603,-1.891888 -0.28194,-0.621095 -0.86218,-0.621095 z m 0,-0.653784 q 0.97659,0 1.4751,0.800886 0.5026,0.800885 0.5026,2.365881 0,1.56091 -0.5026,2.361796 -0.49851,0.800885 -1.4751,0.800885 -0.97659,0 -1.4751,-0.800885 -0.49851,-0.800886 -0.49851,-2.361796 0,-1.564996 0.49851,-2.365881 0.49851,-0.800886 1.4751,-0.800886 z"
         style="font-style:normal;font-variant:normal;font-weight:normal;font-stretch:normal;font-family:FreeMono;-inkscape-font-specification:FreeMono;stroke-width:0.20921095"
         id="path3627" />
      <path
         d="m 121.36707,21.860353 v 7.461313 h -1.73253 v -0.58432 h 0.98068 v -6.292673 h -0.98068 v -0.58432 z"
         style="font-style:normal;font-variant:normal;font-weight:normal;font-stretch:normal;font-family:FreeMono;-inkscape-font-specification:FreeMono;stroke-width:0.20921095"
         id="path3629" />
    </g>
    <rect
       style="fill:#afc6e9;stroke:none;stroke-width:1;stroke-miterlimit:4;stroke-dasharray:none"
       id="rect827"
       width="21.314745"
       height="9.8889713"
       x="141.51921"
       y="20.509672" />
    <g
       aria-label="y[0]"
       style="font-style:normal;font-weight:normal;font-size:8.36843777px;line-height:1.25;font-family:sans-serif;letter-spacing:0px;word-spacing:0px;fill:#000000;fill-opacity:1;stroke:none;stroke-width:0.20921095"
       id="text831">
      <path
         d="m 146.18013,26.74739 q -0.18797,0.47808 -0.47808,1.258535 -0.40453,1.078744 -0.54346,1.315741 -0.18796,0.318719 -0.46991,0.478079 -0.28194,0.15936 -0.65787,0.15936 h -0.60475 v -0.629267 h 0.44539 q 0.33098,0 0.51894,-0.192049 0.18797,-0.192049 0.47808,-0.992935 l -1.7693,-4.502939 h 0.7968 l 1.3566,3.579469 1.33617,-3.579469 h 0.7968 z"
         style="font-style:normal;font-variant:normal;font-weight:normal;font-stretch:normal;font-family:FreeMono;-inkscape-font-specification:FreeMono;stroke-width:0.20921095"
         id="path3614" />
      <path
         d="m 149.60024,21.860353 h 1.73252 v 0.58432 h -0.98067 v 6.292673 h 0.98067 v 0.58432 h -1.73252 z"
         style="font-style:normal;font-variant:normal;font-weight:normal;font-stretch:normal;font-family:FreeMono;-inkscape-font-specification:FreeMono;stroke-width:0.20921095"
         id="path3616" />
      <path
         d="m 154.7161,25.153791 q 0,-0.224738 0.15527,-0.388184 0.15936,-0.163446 0.38001,-0.163446 0.22883,0 0.39227,0.163446 0.16345,0.163446 0.16345,0.388184 0,0.228825 -0.16345,0.388185 -0.15936,0.15936 -0.39227,0.15936 -0.22882,0 -0.3841,-0.155274 -0.15118,-0.155274 -0.15118,-0.392271 z m 0.54346,-2.492552 q -0.57615,0 -0.86218,0.621095 -0.28195,0.621095 -0.28195,1.891888 0,1.266707 0.28195,1.887802 0.28603,0.621095 0.86218,0.621095 0.58023,0 0.86217,-0.621095 0.28603,-0.621095 0.28603,-1.887802 0,-1.270793 -0.28603,-1.891888 -0.28194,-0.621095 -0.86217,-0.621095 z m 0,-0.653784 q 0.97659,0 1.4751,0.800886 0.50259,0.800885 0.50259,2.365881 0,1.56091 -0.50259,2.361796 -0.49851,0.800885 -1.4751,0.800885 -0.97659,0 -1.47511,-0.800885 -0.49851,-0.800886 -0.49851,-2.361796 0,-1.564996 0.49851,-2.365881 0.49852,-0.800886 1.47511,-0.800886 z"
         style="font-style:normal;font-variant:normal;font-weight:normal;font-stretch:normal;font-family:FreeMono;-inkscape-font-specification:FreeMono;stroke-width:0.20921095"
         id="path3618" />
      <path
         d="m 160.92296,21.860353 v 7.461313 h -1.73253 v -0.58432 h 0.98068 v -6.292673 h -0.98068 v -0.58432 z"
         style="font-style:normal;font-variant:normal;font-weight:normal;font-stretch:normal;font-family:FreeMono;-inkscape-font-specification:FreeMono;stroke-width:0.20921095"
         id="path3620" />
    </g>
    <g
       aria-label="+"
       style="font-style:normal;font-weight:normal;font-size:8.36843777px;line-height:1.25;font-family:sans-serif;letter-spacing:0px;word-spacing:0px;fill:#000000;fill-opacity:1;stroke:none;stroke-width:0.20921095"
       id="text835">
      <path
         d="m 132.70558,23.433522 v 1.814251 h 1.81834 v 0.694646 h -1.81834 v 1.814251 h -0.68647 v -1.814251 h -1.81425 v -0.694646 h 1.81425 v -1.814251 z"
         style="font-style:normal;font-variant:normal;font-weight:normal;font-stretch:normal;font-family:FreeMono;-inkscape-font-specification:FreeMono;stroke-width:0.20921095"
         id="path3611" />
    </g>
    <g
       aria-label="a *"
       style="font-style:normal;font-weight:normal;font-size:8.36843777px;line-height:1.25;font-family:sans-serif;letter-spacing:0px;word-spacing:0px;fill:#000000;fill-opacity:1;stroke:none;stroke-width:0.20921095"
       id="text839">
      <path
         d="m 84.070688,25.917902 h -0.249256 q -0.65787,0 -0.992934,0.23291 -0.330979,0.228825 -0.330979,0.686474 0,0.412701 0.249256,0.641525 0.249255,0.228825 0.690559,0.228825 0.621095,0 0.97659,-0.429046 0.355496,-0.433132 0.359582,-1.193156 v -0.167532 z m 1.458756,-0.310548 v 2.611051 h -0.755938 v -0.678301 q -0.241083,0.408615 -0.608837,0.60475 -0.363667,0.192049 -0.886695,0.192049 -0.698732,0 -1.115519,-0.39227 -0.416787,-0.396357 -0.416787,-1.058314 0,-0.76411 0.510768,-1.160466 0.514856,-0.396357 1.50779,-0.396357 h 1.00928 v -0.118499 q -0.0041,-0.547544 -0.277859,-0.792713 -0.273772,-0.249255 -0.874436,-0.249255 -0.384098,0 -0.776369,0.110326 -0.39227,0.110326 -0.76411,0.322806 v -0.751852 q 0.416787,-0.15936 0.796799,-0.236997 0.384099,-0.08172 0.74368,-0.08172 0.567975,0 0.968418,0.167532 0.404529,0.167533 0.653784,0.502597 0.155274,0.204308 0.220652,0.506683 0.06538,0.298289 0.06538,0.898953 z"
         style="font-style:normal;font-variant:normal;font-weight:normal;font-stretch:normal;font-family:FreeMono;-inkscape-font-specification:FreeMono;stroke-width:0.20921095"
         id="path3606" />
      <path
         d="m 95.630409,23.122974 -1.462842,0.792714 1.462842,0.796799 -0.23291,0.400443 -1.372947,-0.829489 v 1.540479 h -0.469908 v -1.540479 l -1.372946,0.829489 -0.232911,-0.400443 1.462842,-0.796799 -1.462842,-0.792714 0.232911,-0.404529 1.372946,0.829489 v -1.540479 h 0.469908 v 1.540479 l 1.372947,-0.829489 z"
         style="font-style:normal;font-variant:normal;font-weight:normal;font-stretch:normal;font-family:FreeMono;-inkscape-font-specification:FreeMono;stroke-width:0.20921095"
         id="path3608" />
    </g>
    <path
       style="fill:none;stroke:#000000;stroke-width:1.06500006;stroke-linecap:butt;stroke-linejoin:miter;stroke-miterlimit:4;stroke-dasharray:none;stroke-opacity:1;marker-end:url(#Arrow1Mend)"
       d="M 76.973622,25.454158 H 64.144685"
       id="path841"
       inkscape:connector-curvature="0"
       sodipodi:nodetypes="cc" />
    <rect
       style="fill:#ffeeaa;stroke:none;stroke-width:1;stroke-miterlimit:4;stroke-dasharray:none"
       id="rect1284"
       width="9.5548811"
       height="9.8889713"
       x="79.010002"
       y="76.315544" />
    <rect
       y="76.315544"
       x="37.551369"
       height="9.8889713"
       width="21.314745"
       id="rect1286"
       style="fill:#ffd5d5;stroke:none;stroke-width:1;stroke-miterlimit:4;stroke-dasharray:none" />
    <g
       aria-label="z[4]"
       style="font-style:normal;font-weight:normal;font-size:8.36843777px;line-height:1.25;font-family:sans-serif;letter-spacing:0px;word-spacing:0px;fill:#000000;fill-opacity:1;stroke:none;stroke-width:0.20921095"
       id="text1290">
      <path
         d="m 39.633912,79.439615 h 3.322041 v 0.686473 l -2.627395,3.285266 h 2.627395 v 0.612923 h -3.420108 v -0.694646 l 2.627395,-3.289352 h -2.529328 z"
         style="font-style:normal;font-variant:normal;font-weight:normal;font-stretch:normal;font-family:FreeMono;-inkscape-font-specification:FreeMono;stroke-width:0.20921095"
         id="path3597" />
      <path
         d="m 45.632382,77.666225 h 1.732528 v 0.58432 h -0.980676 v 6.292673 h 0.980676 v 0.58432 h -1.732528 z"
         style="font-style:normal;font-variant:normal;font-weight:normal;font-stretch:normal;font-family:FreeMono;-inkscape-font-specification:FreeMono;stroke-width:0.20921095"
         id="path3599" />
      <path
         d="m 51.777954,78.675505 -1.924578,3.223973 h 1.924578 z m -0.134843,-0.751852 h 0.956159 v 3.975825 h 0.813144 v 0.670129 H 52.59927 v 1.45467 h -0.821316 v -1.45467 H 49.19142 v -0.780455 z"
         style="font-style:normal;font-variant:normal;font-weight:normal;font-stretch:normal;font-family:FreeMono;-inkscape-font-specification:FreeMono;stroke-width:0.20921095"
         id="path3601" />
      <path
         d="m 56.955108,77.666225 v 7.461313 h -1.732529 v -0.58432 h 0.980677 v -6.292673 h -0.980677 v -0.58432 z"
         style="font-style:normal;font-variant:normal;font-weight:normal;font-stretch:normal;font-family:FreeMono;-inkscape-font-specification:FreeMono;stroke-width:0.20921095"
         id="path3603" />
    </g>
    <rect
       style="fill:#afe9af;stroke:none;stroke-width:1;stroke-miterlimit:4;stroke-dasharray:none"
       id="rect1292"
       width="21.314745"
       height="9.8889713"
       x="101.96333"
       y="76.315544" />
    <g
       aria-label="x[4]"
       style="font-style:normal;font-weight:normal;font-size:8.36843777px;line-height:1.25;font-family:sans-serif;letter-spacing:0px;word-spacing:0px;fill:#000000;fill-opacity:1;stroke:none;stroke-width:0.20921095"
       id="text1296">
      <path
         d="m 107.68663,79.447787 -1.63854,2.190177 1.7979,2.386313 h -0.87035 l -1.34025,-1.834682 -1.33618,1.834682 h -0.87035 l 1.79791,-2.386313 -1.63855,-2.190177 h 0.83358 l 1.21359,1.654892 1.20541,-1.654892 z"
         style="font-style:normal;font-variant:normal;font-weight:normal;font-stretch:normal;font-family:FreeMono;-inkscape-font-specification:FreeMono;stroke-width:0.20921095"
         id="path3588" />
      <path
         d="m 110.04434,77.666225 h 1.73253 v 0.58432 h -0.98068 v 6.292673 h 0.98068 v 0.58432 h -1.73253 z"
         style="font-style:normal;font-variant:normal;font-weight:normal;font-stretch:normal;font-family:FreeMono;-inkscape-font-specification:FreeMono;stroke-width:0.20921095"
         id="path3590" />
      <path
         d="m 116.18991,78.675505 -1.92457,3.223973 h 1.92457 z m -0.13484,-0.751852 h 0.95616 v 3.975825 h 0.81314 v 0.670129 h -0.81314 v 1.45467 h -0.82132 v -1.45467 h -2.58653 v -0.780455 z"
         style="font-style:normal;font-variant:normal;font-weight:normal;font-stretch:normal;font-family:FreeMono;-inkscape-font-specification:FreeMono;stroke-width:0.20921095"
         id="path3592" />
      <path
         d="m 121.36707,77.666225 v 7.461313 h -1.73253 v -0.58432 h 0.98068 v -6.292673 h -0.98068 v -0.58432 z"
         style="font-style:normal;font-variant:normal;font-weight:normal;font-stretch:normal;font-family:FreeMono;-inkscape-font-specification:FreeMono;stroke-width:0.20921095"
         id="path3594" />
    </g>
    <rect
       y="76.315544"
       x="141.51921"
       height="9.8889713"
       width="21.314745"
       id="rect1298"
       style="fill:#afc6e9;stroke:none;stroke-width:1;stroke-miterlimit:4;stroke-dasharray:none" />
    <g
       aria-label="y[4]"
       style="font-style:normal;font-weight:normal;font-size:8.36843777px;line-height:1.25;font-family:sans-serif;letter-spacing:0px;word-spacing:0px;fill:#000000;fill-opacity:1;stroke:none;stroke-width:0.20921095"
       id="text1302">
      <path
         d="m 146.18013,82.553262 q -0.18797,0.47808 -0.47808,1.258535 -0.40453,1.078744 -0.54346,1.315741 -0.18796,0.318719 -0.46991,0.478079 -0.28194,0.15936 -0.65787,0.15936 h -0.60475 V 85.13571 h 0.44539 q 0.33098,0 0.51894,-0.192049 0.18797,-0.192049 0.47808,-0.992935 l -1.7693,-4.502939 h 0.7968 l 1.3566,3.579469 1.33617,-3.579469 h 0.7968 z"
         style="font-style:normal;font-variant:normal;font-weight:normal;font-stretch:normal;font-family:FreeMono;-inkscape-font-specification:FreeMono;stroke-width:0.20921095"
         id="path3579" />
      <path
         d="m 149.60024,77.666225 h 1.73252 v 0.58432 h -0.98067 v 6.292673 h 0.98067 v 0.58432 h -1.73252 z"
         style="font-style:normal;font-variant:normal;font-weight:normal;font-stretch:normal;font-family:FreeMono;-inkscape-font-specification:FreeMono;stroke-width:0.20921095"
         id="path3581" />
      <path
         d="m 155.74581,78.675505 -1.92458,3.223973 h 1.92458 z m -0.13485,-0.751852 h 0.95616 v 3.975825 h 0.81315 v 0.670129 h -0.81315 v 1.45467 h -0.82131 v -1.45467 h -2.58654 v -0.780455 z"
         style="font-style:normal;font-variant:normal;font-weight:normal;font-stretch:normal;font-family:FreeMono;-inkscape-font-specification:FreeMono;stroke-width:0.20921095"
         id="path3583" />
      <path
         d="m 160.92296,77.666225 v 7.461313 h -1.73253 v -0.58432 h 0.98068 v -6.292673 h -0.98068 v -0.58432 z"
         style="font-style:normal;font-variant:normal;font-weight:normal;font-stretch:normal;font-family:FreeMono;-inkscape-font-specification:FreeMono;stroke-width:0.20921095"
         id="path3585" />
    </g>
    <g
       aria-label="+"
       style="font-style:normal;font-weight:normal;font-size:8.36843777px;line-height:1.25;font-family:sans-serif;letter-spacing:0px;word-spacing:0px;fill:#000000;fill-opacity:1;stroke:none;stroke-width:0.20921095"
       id="text1306">
      <path
         d="m 132.70558,79.239394 v 1.814251 h 1.81834 v 0.694645 h -1.81834 v 1.814252 h -0.68647 V 81.74829 h -1.81425 v -0.694645 h 1.81425 v -1.814251 z"
         style="font-style:normal;font-variant:normal;font-weight:normal;font-stretch:normal;font-family:FreeMono;-inkscape-font-specification:FreeMono;stroke-width:0.20921095"
         id="path3576" />
    </g>
    <g
       aria-label="a *"
       style="font-style:normal;font-weight:normal;font-size:8.36843777px;line-height:1.25;font-family:sans-serif;letter-spacing:0px;word-spacing:0px;fill:#000000;fill-opacity:1;stroke:none;stroke-width:0.20921095"
       id="text1310">
      <path
         d="m 84.070688,81.723774 h -0.249256 q -0.65787,0 -0.992934,0.23291 -0.330979,0.228825 -0.330979,0.686474 0,0.412701 0.249256,0.641525 0.249255,0.228825 0.690559,0.228825 0.621095,0 0.97659,-0.429046 0.355496,-0.433132 0.359582,-1.193156 v -0.167532 z m 1.458756,-0.310548 v 2.611051 h -0.755938 v -0.678301 q -0.241083,0.408615 -0.608837,0.60475 -0.363667,0.192049 -0.886695,0.192049 -0.698732,0 -1.115519,-0.39227 -0.416787,-0.396357 -0.416787,-1.058314 0,-0.76411 0.510768,-1.160467 0.514856,-0.396356 1.50779,-0.396356 h 1.00928 v -0.118499 q -0.0041,-0.547544 -0.277859,-0.792713 -0.273772,-0.249255 -0.874436,-0.249255 -0.384098,0 -0.776369,0.110326 -0.39227,0.110326 -0.76411,0.322806 v -0.751852 q 0.416787,-0.15936 0.796799,-0.236997 0.384099,-0.08172 0.74368,-0.08172 0.567975,0 0.968418,0.167532 0.404529,0.167533 0.653784,0.502597 0.155274,0.204308 0.220652,0.506683 0.06538,0.298289 0.06538,0.898953 z"
         style="font-style:normal;font-variant:normal;font-weight:normal;font-stretch:normal;font-family:FreeMono;-inkscape-font-specification:FreeMono;stroke-width:0.20921095"
         id="path3571" />
      <path
         d="m 95.630409,78.928846 -1.462842,0.792713 1.462842,0.7968 -0.23291,0.400443 -1.372947,-0.829489 v 1.540479 h -0.469908 v -1.540479 l -1.372946,0.829489 -0.232911,-0.400443 1.462842,-0.7968 -1.462842,-0.792713 0.232911,-0.404529 1.372946,0.829489 v -1.540479 h 0.469908 v 1.540479 l 1.372947,-0.829489 z"
         style="font-style:normal;font-variant:normal;font-weight:normal;font-stretch:normal;font-family:FreeMono;-inkscape-font-specification:FreeMono;stroke-width:0.20921095"
         id="path3573" />
    </g>
    <path
       sodipodi:nodetypes="cc"
       inkscape:connector-curvature="0"
       id="path1312"
       d="M 76.973622,81.260029 H 64.144685"
       style="fill:none;stroke:#000000;stroke-width:1.06500006;stroke-linecap:butt;stroke-linejoin:miter;stroke-miterlimit:4;stroke-dasharray:none;stroke-opacity:1;marker-end:url(#Arrow1Mend)" />
    <rect
       y="62.364086"
       x="79.010002"
       height="9.8889713"
       width="9.5548811"
       id="rect1316"
       style="fill:#ffeeaa;stroke:none;stroke-width:1;stroke-miterlimit:4;stroke-dasharray:none" />
    <rect
       style="fill:#ffd5d5;stroke:none;stroke-width:1;stroke-miterlimit:4;stroke-dasharray:none"
       id="rect1318"
       width="21.314745"
       height="9.8889713"
       x="37.551369"
       y="62.364086" />
    <g
       aria-label="z[3]"
       style="font-style:normal;font-weight:normal;font-size:8.36843777px;line-height:1.25;font-family:sans-serif;letter-spacing:0px;word-spacing:0px;fill:#000000;fill-opacity:1;stroke:none;stroke-width:0.20921095"
       id="text1322">
      <path
         d="m 39.633912,65.488153 h 3.322041 v 0.686474 l -2.627395,3.285265 h 2.627395 v 0.612923 h -3.420108 v -0.694646 l 2.627395,-3.289352 h -2.529328 z"
         style="font-style:normal;font-variant:normal;font-weight:normal;font-stretch:normal;font-family:FreeMono;-inkscape-font-specification:FreeMono;stroke-width:0.20921095"
         id="path3562" />
      <path
         d="m 45.632382,63.714764 h 1.732528 v 0.584319 h -0.980676 v 6.292673 h 0.980676 v 0.58432 h -1.732528 z"
         style="font-style:normal;font-variant:normal;font-weight:normal;font-stretch:normal;font-family:FreeMono;-inkscape-font-specification:FreeMono;stroke-width:0.20921095"
         id="path3564" />
      <path
         d="m 51.945486,66.80798 q 0.600664,0.15936 0.919384,0.567975 0.31872,0.404529 0.31872,1.013366 0,0.841747 -0.567975,1.323913 -0.563889,0.478079 -1.564996,0.478079 -0.420874,0 -0.858092,-0.07764 -0.437218,-0.07764 -0.858092,-0.224738 v -0.821316 q 0.416788,0.216566 0.821317,0.322806 0.404529,0.10624 0.804971,0.10624 0.678301,0 1.041969,-0.306462 0.363667,-0.306461 0.363667,-0.882608 0,-0.5312 -0.363667,-0.841748 -0.363668,-0.314633 -0.984763,-0.314633 h -0.629267 v -0.678301 h 0.629267 q 0.567976,0 0.886695,-0.249256 0.31872,-0.249255 0.31872,-0.694645 0,-0.469908 -0.298289,-0.719163 -0.294203,-0.253341 -0.841747,-0.253341 -0.363668,0 -0.751852,0.08172 -0.388184,0.08172 -0.813144,0.245169 v -0.760024 q 0.494424,-0.130757 0.878523,-0.196136 0.388184,-0.06538 0.686473,-0.06538 0.890781,0 1.421981,0.449477 0.535285,0.44539 0.535285,1.184984 0,0.502596 -0.281944,0.837661 -0.277858,0.335064 -0.813144,0.473993 z"
         style="font-style:normal;font-variant:normal;font-weight:normal;font-stretch:normal;font-family:FreeMono;-inkscape-font-specification:FreeMono;stroke-width:0.20921095"
         id="path3566" />
      <path
         d="m 56.955108,63.714764 v 7.461312 h -1.732529 v -0.58432 h 0.980677 v -6.292673 h -0.980677 v -0.584319 z"
         style="font-style:normal;font-variant:normal;font-weight:normal;font-stretch:normal;font-family:FreeMono;-inkscape-font-specification:FreeMono;stroke-width:0.20921095"
         id="path3568" />
    </g>
    <rect
       y="62.364086"
       x="101.96333"
       height="9.8889713"
       width="21.314745"
       id="rect1324"
       style="fill:#afe9af;stroke:none;stroke-width:1;stroke-miterlimit:4;stroke-dasharray:none" />
    <g
       aria-label="x[3]"
       style="font-style:normal;font-weight:normal;font-size:8.36843777px;line-height:1.25;font-family:sans-serif;letter-spacing:0px;word-spacing:0px;fill:#000000;fill-opacity:1;stroke:none;stroke-width:0.20921095"
       id="text1328">
      <path
         d="m 107.68663,65.496326 -1.63854,2.190177 1.7979,2.386312 h -0.87035 l -1.34025,-1.834682 -1.33618,1.834682 h -0.87035 l 1.79791,-2.386312 -1.63855,-2.190177 h 0.83358 l 1.21359,1.654891 1.20541,-1.654891 z"
         style="font-style:normal;font-variant:normal;font-weight:normal;font-stretch:normal;font-family:FreeMono;-inkscape-font-specification:FreeMono;stroke-width:0.20921095"
         id="path3553" />
      <path
         d="m 110.04434,63.714764 h 1.73253 v 0.584319 h -0.98068 v 6.292673 h 0.98068 v 0.58432 h -1.73253 z"
         style="font-style:normal;font-variant:normal;font-weight:normal;font-stretch:normal;font-family:FreeMono;-inkscape-font-specification:FreeMono;stroke-width:0.20921095"
         id="path3555" />
      <path
         d="m 116.35745,66.80798 q 0.60066,0.15936 0.91938,0.567975 0.31872,0.404529 0.31872,1.013366 0,0.841747 -0.56797,1.323913 -0.56389,0.478079 -1.565,0.478079 -0.42087,0 -0.85809,-0.07764 -0.43722,-0.07764 -0.85809,-0.224738 v -0.821316 q 0.41678,0.216566 0.82131,0.322806 0.40453,0.10624 0.80497,0.10624 0.67831,0 1.04197,-0.306462 0.36367,-0.306461 0.36367,-0.882608 0,-0.5312 -0.36367,-0.841748 -0.36366,-0.314633 -0.98476,-0.314633 h -0.62927 v -0.678301 h 0.62927 q 0.56798,0 0.88669,-0.249256 0.31872,-0.249255 0.31872,-0.694645 0,-0.469908 -0.29828,-0.719163 -0.29421,-0.253341 -0.84175,-0.253341 -0.36367,0 -0.75185,0.08172 -0.38819,0.08172 -0.81315,0.245169 v -0.760024 q 0.49443,-0.130757 0.87853,-0.196136 0.38818,-0.06538 0.68647,-0.06538 0.89078,0 1.42198,0.449477 0.53528,0.44539 0.53528,1.184984 0,0.502596 -0.28194,0.837661 -0.27786,0.335064 -0.81314,0.473993 z"
         style="font-style:normal;font-variant:normal;font-weight:normal;font-stretch:normal;font-family:FreeMono;-inkscape-font-specification:FreeMono;stroke-width:0.20921095"
         id="path3557" />
      <path
         d="m 121.36707,63.714764 v 7.461312 h -1.73253 v -0.58432 h 0.98068 v -6.292673 h -0.98068 v -0.584319 z"
         style="font-style:normal;font-variant:normal;font-weight:normal;font-stretch:normal;font-family:FreeMono;-inkscape-font-specification:FreeMono;stroke-width:0.20921095"
         id="path3559" />
    </g>
    <rect
       style="fill:#afc6e9;stroke:none;stroke-width:1;stroke-miterlimit:4;stroke-dasharray:none"
       id="rect1330"
       width="21.314745"
       height="9.8889713"
       x="141.51921"
       y="62.364086" />
    <g
       aria-label="y[3]"
       style="font-style:normal;font-weight:normal;font-size:8.36843777px;line-height:1.25;font-family:sans-serif;letter-spacing:0px;word-spacing:0px;fill:#000000;fill-opacity:1;stroke:none;stroke-width:0.20921095"
       id="text1334">
      <path
         d="m 146.18013,68.6018 q -0.18797,0.47808 -0.47808,1.258535 -0.40453,1.078744 -0.54346,1.315741 -0.18796,0.31872 -0.46991,0.478079 -0.28194,0.15936 -0.65787,0.15936 h -0.60475 v -0.629267 h 0.44539 q 0.33098,0 0.51894,-0.192049 0.18797,-0.192049 0.47808,-0.992935 l -1.7693,-4.502938 h 0.7968 l 1.3566,3.579468 1.33617,-3.579468 h 0.7968 z"
         style="font-style:normal;font-variant:normal;font-weight:normal;font-stretch:normal;font-family:FreeMono;-inkscape-font-specification:FreeMono;stroke-width:0.20921095"
         id="path3544" />
      <path
         d="m 149.60024,63.714764 h 1.73252 v 0.584319 h -0.98067 v 6.292673 h 0.98067 v 0.58432 h -1.73252 z"
         style="font-style:normal;font-variant:normal;font-weight:normal;font-stretch:normal;font-family:FreeMono;-inkscape-font-specification:FreeMono;stroke-width:0.20921095"
         id="path3546" />
      <path
         d="m 155.91334,66.80798 q 0.60066,0.15936 0.91938,0.567975 0.31872,0.404529 0.31872,1.013366 0,0.841747 -0.56797,1.323913 -0.56389,0.478079 -1.565,0.478079 -0.42087,0 -0.85809,-0.07764 -0.43722,-0.07764 -0.85809,-0.224738 v -0.821316 q 0.41679,0.216566 0.82132,0.322806 0.40452,0.10624 0.80497,0.10624 0.6783,0 1.04197,-0.306462 0.36366,-0.306461 0.36366,-0.882608 0,-0.5312 -0.36366,-0.841748 -0.36367,-0.314633 -0.98477,-0.314633 h -0.62926 v -0.678301 h 0.62926 q 0.56798,0 0.8867,-0.249256 0.31872,-0.249255 0.31872,-0.694645 0,-0.469908 -0.29829,-0.719163 -0.2942,-0.253341 -0.84175,-0.253341 -0.36367,0 -0.75185,0.08172 -0.38818,0.08172 -0.81314,0.245169 v -0.760024 q 0.49442,-0.130757 0.87852,-0.196136 0.38818,-0.06538 0.68647,-0.06538 0.89078,0 1.42198,0.449477 0.53529,0.44539 0.53529,1.184984 0,0.502596 -0.28195,0.837661 -0.27785,0.335064 -0.81314,0.473993 z"
         style="font-style:normal;font-variant:normal;font-weight:normal;font-stretch:normal;font-family:FreeMono;-inkscape-font-specification:FreeMono;stroke-width:0.20921095"
         id="path3548" />
      <path
         d="m 160.92296,63.714764 v 7.461312 h -1.73253 v -0.58432 h 0.98068 v -6.292673 h -0.98068 v -0.584319 z"
         style="font-style:normal;font-variant:normal;font-weight:normal;font-stretch:normal;font-family:FreeMono;-inkscape-font-specification:FreeMono;stroke-width:0.20921095"
         id="path3550" />
    </g>
    <g
       aria-label="+"
       style="font-style:normal;font-weight:normal;font-size:8.36843777px;line-height:1.25;font-family:sans-serif;letter-spacing:0px;word-spacing:0px;fill:#000000;fill-opacity:1;stroke:none;stroke-width:0.20921095"
       id="text1338">
      <path
         d="m 132.70558,65.287932 v 1.814251 h 1.81834 v 0.694646 h -1.81834 v 1.814251 h -0.68647 v -1.814251 h -1.81425 v -0.694646 h 1.81425 v -1.814251 z"
         style="font-style:normal;font-variant:normal;font-weight:normal;font-stretch:normal;font-family:FreeMono;-inkscape-font-specification:FreeMono;stroke-width:0.20921095"
         id="path3541" />
    </g>
    <g
       aria-label="a *"
       style="font-style:normal;font-weight:normal;font-size:8.36843777px;line-height:1.25;font-family:sans-serif;letter-spacing:0px;word-spacing:0px;fill:#000000;fill-opacity:1;stroke:none;stroke-width:0.20921095"
       id="text1342">
      <path
         d="m 84.070688,67.772312 h -0.249256 q -0.65787,0 -0.992934,0.23291 -0.330979,0.228825 -0.330979,0.686474 0,0.412701 0.249256,0.641526 0.249255,0.228824 0.690559,0.228824 0.621095,0 0.97659,-0.429046 0.355496,-0.433132 0.359582,-1.193156 v -0.167532 z m 1.458756,-0.310548 v 2.611051 h -0.755938 v -0.678301 q -0.241083,0.408615 -0.608837,0.60475 -0.363667,0.192049 -0.886695,0.192049 -0.698732,0 -1.115519,-0.39227 -0.416787,-0.396357 -0.416787,-1.058313 0,-0.764111 0.510768,-1.160467 0.514856,-0.396357 1.50779,-0.396357 h 1.00928 v -0.118498 q -0.0041,-0.547545 -0.277859,-0.792714 -0.273772,-0.249255 -0.874436,-0.249255 -0.384098,0 -0.776369,0.110326 -0.39227,0.110326 -0.76411,0.322806 v -0.751852 q 0.416787,-0.15936 0.796799,-0.236997 0.384099,-0.08172 0.74368,-0.08172 0.567975,0 0.968418,0.167533 0.404529,0.167532 0.653784,0.502596 0.155274,0.204308 0.220652,0.506683 0.06538,0.298289 0.06538,0.898953 z"
         style="font-style:normal;font-variant:normal;font-weight:normal;font-stretch:normal;font-family:FreeMono;-inkscape-font-specification:FreeMono;stroke-width:0.20921095"
         id="path3536" />
      <path
         d="m 95.630409,64.977384 -1.462842,0.792714 1.462842,0.796799 -0.23291,0.400443 -1.372947,-0.829489 v 1.540479 h -0.469908 v -1.540479 l -1.372946,0.829489 -0.232911,-0.400443 1.462842,-0.796799 -1.462842,-0.792714 0.232911,-0.404529 1.372946,0.829489 v -1.540479 h 0.469908 v 1.540479 l 1.372947,-0.829489 z"
         style="font-style:normal;font-variant:normal;font-weight:normal;font-stretch:normal;font-family:FreeMono;-inkscape-font-specification:FreeMono;stroke-width:0.20921095"
         id="path3538" />
    </g>
    <path
       style="fill:none;stroke:#000000;stroke-width:1.06500006;stroke-linecap:butt;stroke-linejoin:miter;stroke-miterlimit:4;stroke-dasharray:none;stroke-opacity:1;marker-end:url(#Arrow1Mend)"
       d="M 76.973622,67.308571 H 64.144685"
       id="path1344"
       inkscape:connector-curvature="0"
       sodipodi:nodetypes="cc" />
    <rect
       style="fill:#ffeeaa;stroke:none;stroke-width:1;stroke-miterlimit:4;stroke-dasharray:none"
       id="rect1348"
       width="9.5548811"
       height="9.8889713"
       x="79.010002"
       y="48.412613" />
    <rect
       y="48.412613"
       x="37.551369"
       height="9.8889713"
       width="21.314745"
       id="rect1350"
       style="fill:#ffd5d5;stroke:none;stroke-width:1;stroke-miterlimit:4;stroke-dasharray:none" />
    <g
       aria-label="z[2]"
       style="font-style:normal;font-weight:normal;font-size:8.36843777px;line-height:1.25;font-family:sans-serif;letter-spacing:0px;word-spacing:0px;fill:#000000;fill-opacity:1;stroke:none;stroke-width:0.20921095"
       id="text1354">
      <path
         d="m 39.633912,51.536684 h 3.322041 v 0.686473 l -2.627395,3.285266 h 2.627395 v 0.612923 H 39.535845 V 55.4267 l 2.627395,-3.289352 h -2.529328 z"
         style="font-style:normal;font-variant:normal;font-weight:normal;font-stretch:normal;font-family:FreeMono;-inkscape-font-specification:FreeMono;stroke-width:0.20921095"
         id="path3527" />
      <path
         d="m 45.632382,49.763294 h 1.732528 v 0.58432 h -0.980676 v 6.292673 h 0.980676 v 0.584319 h -1.732528 z"
         style="font-style:normal;font-variant:normal;font-weight:normal;font-stretch:normal;font-family:FreeMono;-inkscape-font-specification:FreeMono;stroke-width:0.20921095"
         id="path3529" />
      <path
         d="m 50.298767,55.4267 h 2.8031 v 0.694646 h -3.70614 V 55.4267 q 0.764111,-0.804972 1.336172,-1.421981 0.572061,-0.617009 0.788627,-0.87035 0.408615,-0.49851 0.551631,-0.804972 0.143015,-0.310547 0.143015,-0.633353 0,-0.510769 -0.302375,-0.800886 -0.298289,-0.290117 -0.821317,-0.290117 -0.37184,0 -0.780455,0.134843 -0.408615,0.134843 -0.866264,0.408615 v -0.833574 q 0.420874,-0.200222 0.825403,-0.302376 0.408615,-0.102153 0.804972,-0.102153 0.894867,0 1.438325,0.478079 0.547544,0.473994 0.547544,1.246276 0,0.392271 -0.183877,0.784541 -0.17979,0.392271 -0.588405,0.866265 -0.228825,0.265599 -0.666043,0.735507 -0.433132,0.469907 -1.323913,1.405636 z"
         style="font-style:normal;font-variant:normal;font-weight:normal;font-stretch:normal;font-family:FreeMono;-inkscape-font-specification:FreeMono;stroke-width:0.20921095"
         id="path3531" />
      <path
         d="m 56.955108,49.763294 v 7.461312 h -1.732529 v -0.584319 h 0.980677 v -6.292673 h -0.980677 v -0.58432 z"
         style="font-style:normal;font-variant:normal;font-weight:normal;font-stretch:normal;font-family:FreeMono;-inkscape-font-specification:FreeMono;stroke-width:0.20921095"
         id="path3533" />
    </g>
    <rect
       style="fill:#afe9af;stroke:none;stroke-width:1;stroke-miterlimit:4;stroke-dasharray:none"
       id="rect1356"
       width="21.314745"
       height="9.8889713"
       x="101.96333"
       y="48.412613" />
    <g
       aria-label="x[2]"
       style="font-style:normal;font-weight:normal;font-size:8.36843777px;line-height:1.25;font-family:sans-serif;letter-spacing:0px;word-spacing:0px;fill:#000000;fill-opacity:1;stroke:none;stroke-width:0.20921095"
       id="text1360">
      <path
         d="m 107.68663,51.544856 -1.63854,2.190177 1.7979,2.386313 h -0.87035 l -1.34025,-1.834682 -1.33618,1.834682 h -0.87035 l 1.79791,-2.386313 -1.63855,-2.190177 h 0.83358 l 1.21359,1.654891 1.20541,-1.654891 z"
         style="font-style:normal;font-variant:normal;font-weight:normal;font-stretch:normal;font-family:FreeMono;-inkscape-font-specification:FreeMono;stroke-width:0.20921095"
         id="path3518" />
      <path
         d="m 110.04434,49.763294 h 1.73253 v 0.58432 h -0.98068 v 6.292673 h 0.98068 v 0.584319 h -1.73253 z"
         style="font-style:normal;font-variant:normal;font-weight:normal;font-stretch:normal;font-family:FreeMono;-inkscape-font-specification:FreeMono;stroke-width:0.20921095"
         id="path3520" />
      <path
         d="m 114.71073,55.4267 h 2.8031 v 0.694646 h -3.70614 V 55.4267 q 0.76411,-0.804972 1.33617,-1.421981 0.57206,-0.617009 0.78863,-0.87035 0.40861,-0.49851 0.55163,-0.804972 0.14301,-0.310547 0.14301,-0.633353 0,-0.510769 -0.30237,-0.800886 -0.29829,-0.290117 -0.82132,-0.290117 -0.37184,0 -0.78045,0.134843 -0.40862,0.134843 -0.86627,0.408615 v -0.833574 q 0.42088,-0.200222 0.8254,-0.302376 0.40862,-0.102153 0.80498,-0.102153 0.89486,0 1.43832,0.478079 0.54755,0.473994 0.54755,1.246276 0,0.392271 -0.18388,0.784541 -0.17979,0.392271 -0.58841,0.866265 -0.22882,0.265599 -0.66604,0.735507 -0.43313,0.469907 -1.32391,1.405636 z"
         style="font-style:normal;font-variant:normal;font-weight:normal;font-stretch:normal;font-family:FreeMono;-inkscape-font-specification:FreeMono;stroke-width:0.20921095"
         id="path3522" />
      <path
         d="m 121.36707,49.763294 v 7.461312 h -1.73253 v -0.584319 h 0.98068 v -6.292673 h -0.98068 v -0.58432 z"
         style="font-style:normal;font-variant:normal;font-weight:normal;font-stretch:normal;font-family:FreeMono;-inkscape-font-specification:FreeMono;stroke-width:0.20921095"
         id="path3524" />
    </g>
    <rect
       y="48.412613"
       x="141.51921"
       height="9.8889713"
       width="21.314745"
       id="rect1362"
       style="fill:#afc6e9;stroke:none;stroke-width:1;stroke-miterlimit:4;stroke-dasharray:none" />
    <g
       aria-label="y[2]"
       style="font-style:normal;font-weight:normal;font-size:8.36843777px;line-height:1.25;font-family:sans-serif;letter-spacing:0px;word-spacing:0px;fill:#000000;fill-opacity:1;stroke:none;stroke-width:0.20921095"
       id="text1366">
      <path
         d="m 146.18013,54.650331 q -0.18797,0.47808 -0.47808,1.258535 -0.40453,1.078744 -0.54346,1.31574 -0.18796,0.31872 -0.46991,0.47808 -0.28194,0.15936 -0.65787,0.15936 h -0.60475 v -0.629267 h 0.44539 q 0.33098,0 0.51894,-0.192049 0.18797,-0.19205 0.47808,-0.992935 l -1.7693,-4.502939 h 0.7968 l 1.3566,3.579469 1.33617,-3.579469 h 0.7968 z"
         style="font-style:normal;font-variant:normal;font-weight:normal;font-stretch:normal;font-family:FreeMono;-inkscape-font-specification:FreeMono;stroke-width:0.20921095"
         id="path3509" />
      <path
         d="m 149.60024,49.763294 h 1.73252 v 0.58432 h -0.98067 v 6.292673 h 0.98067 v 0.584319 h -1.73252 z"
         style="font-style:normal;font-variant:normal;font-weight:normal;font-stretch:normal;font-family:FreeMono;-inkscape-font-specification:FreeMono;stroke-width:0.20921095"
         id="path3511" />
      <path
         d="m 154.26662,55.4267 h 2.8031 v 0.694646 h -3.70614 V 55.4267 q 0.76411,-0.804972 1.33617,-1.421981 0.57206,-0.617009 0.78863,-0.87035 0.40861,-0.49851 0.55163,-0.804972 0.14302,-0.310547 0.14302,-0.633353 0,-0.510769 -0.30238,-0.800886 -0.29829,-0.290117 -0.82132,-0.290117 -0.37184,0 -0.78045,0.134843 -0.40862,0.134843 -0.86627,0.408615 v -0.833574 q 0.42088,-0.200222 0.82541,-0.302376 0.40861,-0.102153 0.80497,-0.102153 0.89487,0 1.43832,0.478079 0.54755,0.473994 0.54755,1.246276 0,0.392271 -0.18388,0.784541 -0.17979,0.392271 -0.5884,0.866265 -0.22883,0.265599 -0.66605,0.735507 -0.43313,0.469907 -1.32391,1.405636 z"
         style="font-style:normal;font-variant:normal;font-weight:normal;font-stretch:normal;font-family:FreeMono;-inkscape-font-specification:FreeMono;stroke-width:0.20921095"
         id="path3513" />
      <path
         d="m 160.92296,49.763294 v 7.461312 h -1.73253 v -0.584319 h 0.98068 v -6.292673 h -0.98068 v -0.58432 z"
         style="font-style:normal;font-variant:normal;font-weight:normal;font-stretch:normal;font-family:FreeMono;-inkscape-font-specification:FreeMono;stroke-width:0.20921095"
         id="path3515" />
    </g>
    <g
       aria-label="+"
       style="font-style:normal;font-weight:normal;font-size:8.36843777px;line-height:1.25;font-family:sans-serif;letter-spacing:0px;word-spacing:0px;fill:#000000;fill-opacity:1;stroke:none;stroke-width:0.20921095"
       id="text1370">
      <path
         d="m 132.70558,51.336462 v 1.814252 h 1.81834 v 0.694645 h -1.81834 v 1.814251 h -0.68647 v -1.814251 h -1.81425 v -0.694645 h 1.81425 v -1.814252 z"
         style="font-style:normal;font-variant:normal;font-weight:normal;font-stretch:normal;font-family:FreeMono;-inkscape-font-specification:FreeMono;stroke-width:0.20921095"
         id="path3506" />
    </g>
    <g
       aria-label="a *"
       style="font-style:normal;font-weight:normal;font-size:8.36843777px;line-height:1.25;font-family:sans-serif;letter-spacing:0px;word-spacing:0px;fill:#000000;fill-opacity:1;stroke:none;stroke-width:0.20921095"
       id="text1374">
      <path
         d="m 84.070688,53.820842 h -0.249256 q -0.65787,0 -0.992934,0.232911 -0.330979,0.228824 -0.330979,0.686473 0,0.412702 0.249256,0.641526 0.249255,0.228825 0.690559,0.228825 0.621095,0 0.97659,-0.429046 0.355496,-0.433132 0.359582,-1.193156 v -0.167533 z m 1.458756,-0.310547 v 2.611051 h -0.755938 v -0.678302 q -0.241083,0.408616 -0.608837,0.604751 -0.363667,0.192049 -0.886695,0.192049 -0.698732,0 -1.115519,-0.392271 -0.416787,-0.396356 -0.416787,-1.058313 0,-0.76411 0.510768,-1.160467 0.514856,-0.396356 1.50779,-0.396356 h 1.00928 v -0.118499 q -0.0041,-0.547544 -0.277859,-0.792713 -0.273772,-0.249255 -0.874436,-0.249255 -0.384098,0 -0.776369,0.110326 -0.39227,0.110326 -0.76411,0.322806 V 51.75325 q 0.416787,-0.15936 0.796799,-0.236997 0.384099,-0.08172 0.74368,-0.08172 0.567975,0 0.968418,0.167532 0.404529,0.167532 0.653784,0.502597 0.155274,0.204307 0.220652,0.506683 0.06538,0.298289 0.06538,0.898953 z"
         style="font-style:normal;font-variant:normal;font-weight:normal;font-stretch:normal;font-family:FreeMono;-inkscape-font-specification:FreeMono;stroke-width:0.20921095"
         id="path3501" />
      <path
         d="m 95.630409,51.025915 -1.462842,0.792713 1.462842,0.7968 -0.23291,0.400443 -1.372947,-0.829489 v 1.540479 h -0.469908 v -1.540479 l -1.372946,0.829489 -0.232911,-0.400443 1.462842,-0.7968 -1.462842,-0.792713 0.232911,-0.404529 1.372946,0.829489 v -1.540479 h 0.469908 v 1.540479 l 1.372947,-0.829489 z"
         style="font-style:normal;font-variant:normal;font-weight:normal;font-stretch:normal;font-family:FreeMono;-inkscape-font-specification:FreeMono;stroke-width:0.20921095"
         id="path3503" />
    </g>
    <path
       sodipodi:nodetypes="cc"
       inkscape:connector-curvature="0"
       id="path1376"
       d="M 76.973622,53.357097 H 64.144685"
       style="fill:none;stroke:#000000;stroke-width:1.06500006;stroke-linecap:butt;stroke-linejoin:miter;stroke-miterlimit:4;stroke-dasharray:none;stroke-opacity:1;marker-end:url(#Arrow1Mend)" />
    <rect
       y="34.461155"
       x="79.010002"
       height="9.8889713"
       width="9.5548811"
       id="rect1380"
       style="fill:#ffeeaa;stroke:none;stroke-width:1;stroke-miterlimit:4;stroke-dasharray:none" />
    <rect
       style="fill:#ffd5d5;stroke:none;stroke-width:1;stroke-miterlimit:4;stroke-dasharray:none"
       id="rect1382"
       width="21.314745"
       height="9.8889713"
       x="37.551369"
       y="34.461155" />
    <g
       aria-label="z[1]"
       style="font-style:normal;font-weight:normal;font-size:8.36843777px;line-height:1.25;font-family:sans-serif;letter-spacing:0px;word-spacing:0px;fill:#000000;fill-opacity:1;stroke:none;stroke-width:0.20921095"
       id="text1386">
      <path
         d="m 39.633912,37.585226 h 3.322041 v 0.686473 l -2.627395,3.285266 h 2.627395 v 0.612923 H 39.535845 V 41.475242 L 42.16324,38.18589 h -2.529328 z"
         style="font-style:normal;font-variant:normal;font-weight:normal;font-stretch:normal;font-family:FreeMono;-inkscape-font-specification:FreeMono;stroke-width:0.20921095"
         id="path3492" />
      <path
         d="m 45.632382,35.811836 h 1.732528 v 0.58432 h -0.980676 v 6.292673 h 0.980676 v 0.584319 h -1.732528 z"
         style="font-style:normal;font-variant:normal;font-weight:normal;font-stretch:normal;font-family:FreeMono;-inkscape-font-specification:FreeMono;stroke-width:0.20921095"
         id="path3494" />
      <path
         d="m 49.877893,41.475242 h 1.283052 v -4.662299 l -1.381119,0.310548 v -0.751852 l 1.372946,-0.302375 h 0.825403 v 5.405978 h 1.266707 v 0.694646 h -3.366989 z"
         style="font-style:normal;font-variant:normal;font-weight:normal;font-stretch:normal;font-family:FreeMono;-inkscape-font-specification:FreeMono;stroke-width:0.20921095"
         id="path3496" />
      <path
         d="m 56.955108,35.811836 v 7.461312 h -1.732529 v -0.584319 h 0.980677 v -6.292673 h -0.980677 v -0.58432 z"
         style="font-style:normal;font-variant:normal;font-weight:normal;font-stretch:normal;font-family:FreeMono;-inkscape-font-specification:FreeMono;stroke-width:0.20921095"
         id="path3498" />
    </g>
    <rect
       y="34.461155"
       x="101.96333"
       height="9.8889713"
       width="21.314745"
       id="rect1388"
       style="fill:#afe9af;stroke:none;stroke-width:1;stroke-miterlimit:4;stroke-dasharray:none" />
    <g
       aria-label="x[1]"
       style="font-style:normal;font-weight:normal;font-size:8.36843777px;line-height:1.25;font-family:sans-serif;letter-spacing:0px;word-spacing:0px;fill:#000000;fill-opacity:1;stroke:none;stroke-width:0.20921095"
       id="text1392">
      <path
         d="m 107.68663,37.593398 -1.63854,2.190177 1.7979,2.386313 h -0.87035 l -1.34025,-1.834682 -1.33618,1.834682 h -0.87035 l 1.79791,-2.386313 -1.63855,-2.190177 h 0.83358 l 1.21359,1.654891 1.20541,-1.654891 z"
         style="font-style:normal;font-variant:normal;font-weight:normal;font-stretch:normal;font-family:FreeMono;-inkscape-font-specification:FreeMono;stroke-width:0.20921095"
         id="path3483" />
      <path
         d="m 110.04434,35.811836 h 1.73253 v 0.58432 h -0.98068 v 6.292673 h 0.98068 v 0.584319 h -1.73253 z"
         style="font-style:normal;font-variant:normal;font-weight:normal;font-stretch:normal;font-family:FreeMono;-inkscape-font-specification:FreeMono;stroke-width:0.20921095"
         id="path3485" />
      <path
         d="m 114.28985,41.475242 h 1.28306 v -4.662299 l -1.38112,0.310548 v -0.751852 l 1.37294,-0.302375 h 0.82541 v 5.405978 h 1.2667 v 0.694646 h -3.36699 z"
         style="font-style:normal;font-variant:normal;font-weight:normal;font-stretch:normal;font-family:FreeMono;-inkscape-font-specification:FreeMono;stroke-width:0.20921095"
         id="path3487" />
      <path
         d="m 121.36707,35.811836 v 7.461312 h -1.73253 v -0.584319 h 0.98068 v -6.292673 h -0.98068 v -0.58432 z"
         style="font-style:normal;font-variant:normal;font-weight:normal;font-stretch:normal;font-family:FreeMono;-inkscape-font-specification:FreeMono;stroke-width:0.20921095"
         id="path3489" />
    </g>
    <rect
       style="fill:#afc6e9;stroke:none;stroke-width:1;stroke-miterlimit:4;stroke-dasharray:none"
       id="rect1394"
       width="21.314745"
       height="9.8889713"
       x="141.51921"
       y="34.461155" />
    <g
       aria-label="y[1]"
       style="font-style:normal;font-weight:normal;font-size:8.36843777px;line-height:1.25;font-family:sans-serif;letter-spacing:0px;word-spacing:0px;fill:#000000;fill-opacity:1;stroke:none;stroke-width:0.20921095"
       id="text1398">
      <path
         d="m 146.18013,40.698873 q -0.18797,0.47808 -0.47808,1.258535 -0.40453,1.078744 -0.54346,1.31574 -0.18796,0.31872 -0.46991,0.47808 -0.28194,0.15936 -0.65787,0.15936 h -0.60475 v -0.629267 h 0.44539 q 0.33098,0 0.51894,-0.192049 0.18797,-0.19205 0.47808,-0.992935 l -1.7693,-4.502939 h 0.7968 l 1.3566,3.579469 1.33617,-3.579469 h 0.7968 z"
         style="font-style:normal;font-variant:normal;font-weight:normal;font-stretch:normal;font-family:FreeMono;-inkscape-font-specification:FreeMono;stroke-width:0.20921095"
         id="path3474" />
      <path
         d="m 149.60024,35.811836 h 1.73252 v 0.58432 h -0.98067 v 6.292673 h 0.98067 v 0.584319 h -1.73252 z"
         style="font-style:normal;font-variant:normal;font-weight:normal;font-stretch:normal;font-family:FreeMono;-inkscape-font-specification:FreeMono;stroke-width:0.20921095"
         id="path3476" />
      <path
         d="m 153.84575,41.475242 h 1.28305 v -4.662299 l -1.38112,0.310548 v -0.751852 l 1.37295,-0.302375 h 0.8254 v 5.405978 h 1.26671 v 0.694646 h -3.36699 z"
         style="font-style:normal;font-variant:normal;font-weight:normal;font-stretch:normal;font-family:FreeMono;-inkscape-font-specification:FreeMono;stroke-width:0.20921095"
         id="path3478" />
      <path
         d="m 160.92296,35.811836 v 7.461312 h -1.73253 v -0.584319 h 0.98068 v -6.292673 h -0.98068 v -0.58432 z"
         style="font-style:normal;font-variant:normal;font-weight:normal;font-stretch:normal;font-family:FreeMono;-inkscape-font-specification:FreeMono;stroke-width:0.20921095"
         id="path3480" />
    </g>
    <g
       aria-label="+"
       style="font-style:normal;font-weight:normal;font-size:8.36843777px;line-height:1.25;font-family:sans-serif;letter-spacing:0px;word-spacing:0px;fill:#000000;fill-opacity:1;stroke:none;stroke-width:0.20921095"
       id="text1402">
      <path
         d="m 132.70558,37.385004 v 1.814252 h 1.81834 v 0.694645 h -1.81834 v 1.814251 h -0.68647 v -1.814251 h -1.81425 v -0.694645 h 1.81425 v -1.814252 z"
         style="font-style:normal;font-variant:normal;font-weight:normal;font-stretch:normal;font-family:FreeMono;-inkscape-font-specification:FreeMono;stroke-width:0.20921095"
         id="path3471" />
    </g>
    <g
       aria-label="a *"
       style="font-style:normal;font-weight:normal;font-size:8.36843777px;line-height:1.25;font-family:sans-serif;letter-spacing:0px;word-spacing:0px;fill:#000000;fill-opacity:1;stroke:none;stroke-width:0.20921095"
       id="text1406">
      <path
         d="m 84.070688,39.869384 h -0.249256 q -0.65787,0 -0.992934,0.232911 -0.330979,0.228824 -0.330979,0.686473 0,0.412702 0.249256,0.641526 0.249255,0.228825 0.690559,0.228825 0.621095,0 0.97659,-0.429046 0.355496,-0.433132 0.359582,-1.193156 v -0.167533 z m 1.458756,-0.310547 v 2.611051 h -0.755938 v -0.678302 q -0.241083,0.408616 -0.608837,0.604751 -0.363667,0.192049 -0.886695,0.192049 -0.698732,0 -1.115519,-0.392271 -0.416787,-0.396356 -0.416787,-1.058313 0,-0.76411 0.510768,-1.160467 0.514856,-0.396356 1.50779,-0.396356 h 1.00928 V 39.16248 q -0.0041,-0.547544 -0.277859,-0.792713 -0.273772,-0.249255 -0.874436,-0.249255 -0.384098,0 -0.776369,0.110326 -0.39227,0.110326 -0.76411,0.322806 v -0.751852 q 0.416787,-0.15936 0.796799,-0.236997 0.384099,-0.08172 0.74368,-0.08172 0.567975,0 0.968418,0.167532 0.404529,0.167532 0.653784,0.502597 0.155274,0.204307 0.220652,0.506683 0.06538,0.298289 0.06538,0.898953 z"
         style="font-style:normal;font-variant:normal;font-weight:normal;font-stretch:normal;font-family:FreeMono;-inkscape-font-specification:FreeMono;stroke-width:0.20921095"
         id="path3466" />
      <path
         d="m 95.630409,37.074457 -1.462842,0.792713 1.462842,0.7968 -0.23291,0.400443 -1.372947,-0.829489 v 1.540479 h -0.469908 v -1.540479 l -1.372946,0.829489 -0.232911,-0.400443 1.462842,-0.7968 -1.462842,-0.792713 0.232911,-0.404529 1.372946,0.829489 v -1.540479 h 0.469908 v 1.540479 l 1.372947,-0.829489 z"
         style="font-style:normal;font-variant:normal;font-weight:normal;font-stretch:normal;font-family:FreeMono;-inkscape-font-specification:FreeMono;stroke-width:0.20921095"
         id="path3468" />
    </g>
    <path
       style="fill:none;stroke:#000000;stroke-width:1.06500006;stroke-linecap:butt;stroke-linejoin:miter;stroke-miterlimit:4;stroke-dasharray:none;stroke-opacity:1;marker-end:url(#Arrow1Mend)"
       d="M 76.973622,39.40564 H 64.144685"
       id="path1408"
       inkscape:connector-curvature="0"
       sodipodi:nodetypes="cc" />
    <rect
       style="fill:#ffeeaa;stroke:none;stroke-width:1;stroke-miterlimit:4;stroke-dasharray:none"
       id="rect1412"
       width="9.5548811"
       height="9.8889713"
       x="79.010002"
       y="90.267021" />
    <rect
       y="90.267021"
       x="37.551369"
       height="9.8889713"
       width="21.314745"
       id="rect1414"
       style="fill:#ffd5d5;stroke:none;stroke-width:1;stroke-miterlimit:4;stroke-dasharray:none" />
    <g
       aria-label="z[5]"
       style="font-style:normal;font-weight:normal;font-size:8.36843777px;line-height:1.25;font-family:sans-serif;letter-spacing:0px;word-spacing:0px;fill:#000000;fill-opacity:1;stroke:none;stroke-width:0.20921095"
       id="text1418">
      <path
         d="m 39.633912,93.391092 h 3.322041 v 0.686473 l -2.627395,3.285266 h 2.627395 v 0.612923 h -3.420108 v -0.694646 l 2.627395,-3.289352 h -2.529328 z"
         style="font-style:normal;font-variant:normal;font-weight:normal;font-stretch:normal;font-family:FreeMono;-inkscape-font-specification:FreeMono;stroke-width:0.20921095"
         id="path3457" />
      <path
         d="m 45.632382,91.617702 h 1.732528 v 0.58432 h -0.980676 v 6.292673 h 0.980676 v 0.58432 h -1.732528 z"
         style="font-style:normal;font-variant:normal;font-weight:normal;font-stretch:normal;font-family:FreeMono;-inkscape-font-specification:FreeMono;stroke-width:0.20921095"
         id="path3459" />
      <path
         d="m 49.620466,91.87513 h 3.08913 v 0.694646 h -2.337278 v 1.499617 q 0.175704,-0.06538 0.351409,-0.09398 0.17979,-0.03269 0.359581,-0.03269 0.947987,0 1.503704,0.559803 0.555716,0.559803 0.555716,1.515962 0,0.964332 -0.584319,1.520049 -0.580234,0.555716 -1.589513,0.555716 -0.486252,0 -0.890781,-0.06538 -0.400443,-0.06538 -0.719163,-0.196136 v -0.837661 q 0.375926,0.204308 0.755938,0.306462 0.380012,0.09807 0.776369,0.09807 0.682387,0 1.050141,-0.359581 0.371839,-0.359581 0.371839,-1.021538 0,-0.653784 -0.384098,-1.017451 -0.380012,-0.363668 -1.062399,-0.363668 -0.330978,0 -0.645612,0.07764 -0.314634,0.07355 -0.600664,0.224738 z"
         style="font-style:normal;font-variant:normal;font-weight:normal;font-stretch:normal;font-family:FreeMono;-inkscape-font-specification:FreeMono;stroke-width:0.20921095"
         id="path3461" />
      <path
         d="m 56.955108,91.617702 v 7.461313 h -1.732529 v -0.58432 h 0.980677 v -6.292673 h -0.980677 v -0.58432 z"
         style="font-style:normal;font-variant:normal;font-weight:normal;font-stretch:normal;font-family:FreeMono;-inkscape-font-specification:FreeMono;stroke-width:0.20921095"
         id="path3463" />
    </g>
    <rect
       style="fill:#afe9af;stroke:none;stroke-width:1;stroke-miterlimit:4;stroke-dasharray:none"
       id="rect1420"
       width="21.314745"
       height="9.8889713"
       x="101.96333"
       y="90.267021" />
    <g
       aria-label="x[5]"
       style="font-style:normal;font-weight:normal;font-size:8.36843777px;line-height:1.25;font-family:sans-serif;letter-spacing:0px;word-spacing:0px;fill:#000000;fill-opacity:1;stroke:none;stroke-width:0.20921095"
       id="text1424">
      <path
         d="m 107.68663,93.399264 -1.63854,2.190177 1.7979,2.386313 h -0.87035 l -1.34025,-1.834682 -1.33618,1.834682 h -0.87035 l 1.79791,-2.386313 -1.63855,-2.190177 h 0.83358 l 1.21359,1.654892 1.20541,-1.654892 z"
         style="font-style:normal;font-variant:normal;font-weight:normal;font-stretch:normal;font-family:FreeMono;-inkscape-font-specification:FreeMono;stroke-width:0.20921095"
         id="path3448" />
      <path
         d="m 110.04434,91.617702 h 1.73253 v 0.58432 h -0.98068 v 6.292673 h 0.98068 v 0.58432 h -1.73253 z"
         style="font-style:normal;font-variant:normal;font-weight:normal;font-stretch:normal;font-family:FreeMono;-inkscape-font-specification:FreeMono;stroke-width:0.20921095"
         id="path3450" />
      <path
         d="m 114.03243,91.87513 h 3.08913 v 0.694646 h -2.33728 v 1.499617 q 0.1757,-0.06538 0.35141,-0.09398 0.17979,-0.03269 0.35958,-0.03269 0.94799,0 1.5037,0.559803 0.55572,0.559803 0.55572,1.515962 0,0.964332 -0.58432,1.520049 -0.58023,0.555716 -1.58951,0.555716 -0.48626,0 -0.89078,-0.06538 -0.40045,-0.06538 -0.71917,-0.196136 v -0.837661 q 0.37593,0.204308 0.75594,0.306462 0.38001,0.09807 0.77637,0.09807 0.68239,0 1.05014,-0.359581 0.37184,-0.359581 0.37184,-1.021538 0,-0.653784 -0.3841,-1.017451 -0.38001,-0.363668 -1.0624,-0.363668 -0.33098,0 -0.64561,0.07764 -0.31463,0.07355 -0.60066,0.224738 z"
         style="font-style:normal;font-variant:normal;font-weight:normal;font-stretch:normal;font-family:FreeMono;-inkscape-font-specification:FreeMono;stroke-width:0.20921095"
         id="path3452" />
      <path
         d="m 121.36707,91.617702 v 7.461313 h -1.73253 v -0.58432 h 0.98068 v -6.292673 h -0.98068 v -0.58432 z"
         style="font-style:normal;font-variant:normal;font-weight:normal;font-stretch:normal;font-family:FreeMono;-inkscape-font-specification:FreeMono;stroke-width:0.20921095"
         id="path3454" />
    </g>
    <rect
       y="90.267021"
       x="141.51921"
       height="9.8889713"
       width="21.314745"
       id="rect1426"
       style="fill:#afc6e9;stroke:none;stroke-width:1;stroke-miterlimit:4;stroke-dasharray:none" />
    <g
       aria-label="y[5]"
       style="font-style:normal;font-weight:normal;font-size:8.36843777px;line-height:1.25;font-family:sans-serif;letter-spacing:0px;word-spacing:0px;fill:#000000;fill-opacity:1;stroke:none;stroke-width:0.20921095"
       id="text1430">
      <path
         d="m 146.18013,96.504739 q -0.18797,0.47808 -0.47808,1.258535 -0.40453,1.078744 -0.54346,1.315741 -0.18796,0.318719 -0.46991,0.478079 -0.28194,0.15936 -0.65787,0.15936 h -0.60475 v -0.629267 h 0.44539 q 0.33098,0 0.51894,-0.192049 0.18797,-0.192049 0.47808,-0.992935 l -1.7693,-4.502939 h 0.7968 l 1.3566,3.579469 1.33617,-3.579469 h 0.7968 z"
         style="font-style:normal;font-variant:normal;font-weight:normal;font-stretch:normal;font-family:FreeMono;-inkscape-font-specification:FreeMono;stroke-width:0.20921095"
         id="path3439" />
      <path
         d="m 149.60024,91.617702 h 1.73252 v 0.58432 h -0.98067 v 6.292673 h 0.98067 v 0.58432 h -1.73252 z"
         style="font-style:normal;font-variant:normal;font-weight:normal;font-stretch:normal;font-family:FreeMono;-inkscape-font-specification:FreeMono;stroke-width:0.20921095"
         id="path3441" />
      <path
         d="m 153.58832,91.87513 h 3.08913 v 0.694646 h -2.33728 v 1.499617 q 0.17571,-0.06538 0.35141,-0.09398 0.17979,-0.03269 0.35958,-0.03269 0.94799,0 1.50371,0.559803 0.55571,0.559803 0.55571,1.515962 0,0.964332 -0.58432,1.520049 -0.58023,0.555716 -1.58951,0.555716 -0.48625,0 -0.89078,-0.06538 -0.40044,-0.06538 -0.71916,-0.196136 v -0.837661 q 0.37592,0.204308 0.75593,0.306462 0.38002,0.09807 0.77637,0.09807 0.68239,0 1.05014,-0.359581 0.37184,-0.359581 0.37184,-1.021538 0,-0.653784 -0.3841,-1.017451 -0.38001,-0.363668 -1.06239,-0.363668 -0.33098,0 -0.64562,0.07764 -0.31463,0.07355 -0.60066,0.224738 z"
         style="font-style:normal;font-variant:normal;font-weight:normal;font-stretch:normal;font-family:FreeMono;-inkscape-font-specification:FreeMono;stroke-width:0.20921095"
         id="path3443" />
      <path
         d="m 160.92296,91.617702 v 7.461313 h -1.73253 v -0.58432 h 0.98068 v -6.292673 h -0.98068 v -0.58432 z"
         style="font-style:normal;font-variant:normal;font-weight:normal;font-stretch:normal;font-family:FreeMono;-inkscape-font-specification:FreeMono;stroke-width:0.20921095"
         id="path3445" />
    </g>
    <g
       aria-label="+"
       style="font-style:normal;font-weight:normal;font-size:8.36843777px;line-height:1.25;font-family:sans-serif;letter-spacing:0px;word-spacing:0px;fill:#000000;fill-opacity:1;stroke:none;stroke-width:0.20921095"
       id="text1434">
      <path
         d="m 132.70558,93.190871 v 1.814251 h 1.81834 v 0.694646 h -1.81834 v 1.814251 h -0.68647 v -1.814251 h -1.81425 v -0.694646 h 1.81425 v -1.814251 z"
         style="font-style:normal;font-variant:normal;font-weight:normal;font-stretch:normal;font-family:FreeMono;-inkscape-font-specification:FreeMono;stroke-width:0.20921095"
         id="path3436" />
    </g>
    <g
       aria-label="a *"
       style="font-style:normal;font-weight:normal;font-size:8.36843777px;line-height:1.25;font-family:sans-serif;letter-spacing:0px;word-spacing:0px;fill:#000000;fill-opacity:1;stroke:none;stroke-width:0.20921095"
       id="text1438">
      <path
         d="m 84.070688,95.675251 h -0.249256 q -0.65787,0 -0.992934,0.23291 -0.330979,0.228825 -0.330979,0.686474 0,0.412701 0.249256,0.641525 0.249255,0.228825 0.690559,0.228825 0.621095,0 0.97659,-0.429046 0.355496,-0.433132 0.359582,-1.193156 v -0.167532 z m 1.458756,-0.310548 v 2.611051 h -0.755938 v -0.678301 q -0.241083,0.408615 -0.608837,0.60475 -0.363667,0.192049 -0.886695,0.192049 -0.698732,0 -1.115519,-0.39227 -0.416787,-0.396357 -0.416787,-1.058314 0,-0.76411 0.510768,-1.160466 0.514856,-0.396357 1.50779,-0.396357 h 1.00928 v -0.118499 q -0.0041,-0.547544 -0.277859,-0.792713 -0.273772,-0.249255 -0.874436,-0.249255 -0.384098,0 -0.776369,0.110326 -0.39227,0.110326 -0.76411,0.322806 v -0.751852 q 0.416787,-0.15936 0.796799,-0.236997 0.384099,-0.08172 0.74368,-0.08172 0.567975,0 0.968418,0.167532 0.404529,0.167533 0.653784,0.502597 0.155274,0.204308 0.220652,0.506683 0.06538,0.298289 0.06538,0.898953 z"
         style="font-style:normal;font-variant:normal;font-weight:normal;font-stretch:normal;font-family:FreeMono;-inkscape-font-specification:FreeMono;stroke-width:0.20921095"
         id="path3431" />
      <path
         d="m 95.630409,92.880323 -1.462842,0.792714 1.462842,0.796799 -0.23291,0.400443 -1.372947,-0.829489 v 1.540479 H 93.554644 V 94.04079 l -1.372946,0.829489 -0.232911,-0.400443 1.462842,-0.796799 -1.462842,-0.792714 0.232911,-0.404529 1.372946,0.829489 v -1.540479 h 0.469908 v 1.540479 l 1.372947,-0.829489 z"
         style="font-style:normal;font-variant:normal;font-weight:normal;font-stretch:normal;font-family:FreeMono;-inkscape-font-specification:FreeMono;stroke-width:0.20921095"
         id="path3433" />
    </g>
    <path
       sodipodi:nodetypes="cc"
       inkscape:connector-curvature="0"
       id="path1440"
       d="M 76.973622,95.211504 H 64.144685"
       style="fill:none;stroke:#000000;stroke-width:1.06500006;stroke-linecap:butt;stroke-linejoin:miter;stroke-miterlimit:4;stroke-dasharray:none;stroke-opacity:1;marker-end:url(#Arrow1Mend)" />
    <g
       aria-label="t0"
       style="font-style:normal;font-weight:normal;font-size:8.55487537px;line-height:1.25;font-family:sans-serif;text-align:end;letter-spacing:0px;word-spacing:0px;text-anchor:end;fill:#666666;fill-opacity:1;stroke:none;stroke-width:0.21387188"
       id="text1446">
      <path
         d="m 24.790536,23.475321 h -0.676704 l 0.0919,-0.446959 h 0.676704 l 0.275694,-1.378471 h 0.772779 l -0.275694,1.378471 h 1.445306 l -0.0919,0.446959 h -1.445306 l -0.56392,2.8196 q -0.112784,0.56392 -0.03759,0.722653 0.07937,0.158733 0.37177,0.158733 0.300757,0 0.472022,-0.175442 0.175442,-0.179619 0.263162,-0.576451 h 0.580629 q -0.154556,0.605691 -0.509616,0.885563 -0.350884,0.279871 -0.956576,0.279871 -0.664172,0 -0.881386,-0.292403 -0.217214,-0.29658 -0.07519,-1.002524 z"
         style="font-style:italic;font-variant:normal;font-weight:normal;font-stretch:normal;font-family:FreeSerif;-inkscape-font-specification:'FreeSerif Italic';text-align:end;text-anchor:end;fill:#666666;stroke-width:0.21387188"
         id="path3426" />
      <path
         d="m 28.279112,28.989623 q 0.415421,0 0.621774,-0.456149 0.206353,-0.456148 0.206353,-1.376591 0,-0.923158 -0.206353,-1.379306 -0.206353,-0.456149 -0.621774,-0.456149 -0.415421,0 -0.621774,0.456149 -0.206353,0.456148 -0.206353,1.379306 0,0.920443 0.206353,1.376591 0.206353,0.456149 0.621774,0.456149 z m 0,0.268802 q -0.659786,0 -1.031765,-0.553895 -0.369263,-0.553895 -0.369263,-1.547647 0,-0.996467 0.369263,-1.550362 0.371979,-0.553895 1.031765,-0.553895 0.662502,0 1.031765,0.553895 0.369263,0.553895 0.369263,1.550362 0,0.993752 -0.369263,1.547647 -0.369263,0.553895 -1.031765,0.553895 z"
         style="font-size:5.56066895px;text-align:end;baseline-shift:sub;text-anchor:end;fill:#666666;stroke-width:0.21387188"
         id="path3428" />
    </g>
    <g
       aria-label="t0 + t"
       style="font-style:normal;font-weight:normal;font-size:8.55487537px;line-height:1.25;font-family:sans-serif;text-align:end;letter-spacing:0px;word-spacing:0px;text-anchor:end;fill:#666666;fill-opacity:1;stroke:none;stroke-width:0.21387188"
       id="text1506">
      <path
         d="M 3.23626,37.426804 H 2.5595559 l 0.091898,-0.446959 h 0.676704 l 0.2756943,-1.378471 h 0.7727792 l -0.2756942,1.378471 h 1.4453061 l -0.091898,0.446959 H 4.0090392 l -0.56392,2.8196 q -0.112784,0.56392 -0.037595,0.722653 0.079366,0.158733 0.3717694,0.158733 0.3007574,0 0.472022,-0.175442 0.1754418,-0.179619 0.2631626,-0.576452 h 0.5806288 q -0.1545559,0.605692 -0.5096166,0.885564 -0.3508836,0.279871 -0.9565754,0.279871 -0.6641725,0 -0.8813861,-0.292403 -0.2172136,-0.29658 -0.075189,-1.002524 z"
         style="font-style:italic;font-variant:normal;font-weight:normal;font-stretch:normal;font-family:FreeSerif;-inkscape-font-specification:'FreeSerif Italic';text-align:end;text-anchor:end;fill:#666666;stroke-width:0.21387188"
         id="path3415" />
      <path
         d="m 6.7248362,42.941106 q 0.4154211,0 0.621774,-0.456149 0.206353,-0.456148 0.206353,-1.376591 0,-0.923158 -0.206353,-1.379307 -0.2063529,-0.456148 -0.621774,-0.456148 -0.4154211,0 -0.621774,0.456148 -0.206353,0.456149 -0.206353,1.379307 0,0.920443 0.206353,1.376591 0.2063529,0.456149 0.621774,0.456149 z m 0,0.268802 q -0.6597864,0 -1.0317648,-0.553895 -0.3692631,-0.553895 -0.3692631,-1.547647 0,-0.996468 0.3692631,-1.550362 0.3719784,-0.553895 1.0317648,-0.553895 0.6625016,0 1.0317647,0.553895 0.3692632,0.553894 0.3692632,1.550362 0,0.993752 -0.3692632,1.547647 -0.3692631,0.553895 -1.0317647,0.553895 z"
         style="font-size:64.99999762%;baseline-shift:sub;fill:#666666"
         id="path3417" />
      <path
         d="m 15.139567,36.056687 v 2.343401 h 2.343401 v 0.676704 h -2.343401 v 2.343401 h -0.668349 v -2.343401 h -2.343401 v -0.676704 h 2.343401 v -2.343401 z"
         style="font-style:normal;font-variant:normal;font-weight:normal;font-stretch:normal;font-family:FreeSerif;-inkscape-font-specification:FreeSerif;text-align:end;text-anchor:end;fill:#666666;stroke-width:0.21387188"
         id="path3419" />
      <path
         d="m 21.321802,41.420193 2.539728,-5.793756 h 0.142025 l 2.397704,5.793756 z m 4.08111,-0.355061 -1.69176,-4.160477 -1.829607,4.160477 z"
         style="font-style:normal;font-variant:normal;font-weight:normal;font-stretch:normal;font-family:FreeSerif;-inkscape-font-specification:FreeSerif;fill:#666666"
         id="path3421" />
      <path
         d="m 28.331118,37.426804 h -0.676704 l 0.0919,-0.446959 h 0.676704 l 0.275694,-1.378471 h 0.77278 l -0.275695,1.378471 h 1.445307 l -0.0919,0.446959 h -1.445306 l -0.56392,2.8196 q -0.112784,0.56392 -0.03759,0.722653 0.07937,0.158733 0.371769,0.158733 0.300758,0 0.472022,-0.175442 0.175442,-0.179619 0.263163,-0.576452 h 0.580629 q -0.154556,0.605692 -0.509617,0.885564 -0.350884,0.279871 -0.956575,0.279871 -0.664173,0 -0.881387,-0.292403 -0.217213,-0.29658 -0.07519,-1.002524 z"
         style="font-style:italic;font-variant:normal;font-weight:normal;font-stretch:normal;font-family:FreeSerif;-inkscape-font-specification:'FreeSerif Italic';fill:#666666"
         id="path3423" />
    </g>
    <g
       aria-label="t0 + 2t"
       style="font-style:normal;font-weight:normal;font-size:8.55487537px;line-height:1.25;font-family:sans-serif;text-align:end;letter-spacing:0px;word-spacing:0px;text-anchor:end;fill:#666666;fill-opacity:1;stroke:none;stroke-width:0.21387188"
       id="text1526">
      <path
         d="m -2.2107896,51.378262 h -0.676704 l 0.091898,-0.446959 h 0.676704 l 0.2756942,-1.378471 h 0.7727793 l -0.2756943,1.378471 H 0.09919384 L 0.00729577,51.378262 H -1.4380103 l -0.56392,2.8196 q -0.112784,0.56392 -0.037595,0.722653 0.079366,0.158733 0.3717695,0.158733 0.3007573,0 0.4720219,-0.175442 0.1754418,-0.179619 0.26316269,-0.576452 h 0.58062875 q -0.15455586,0.605692 -0.5096166,0.885564 -0.35088354,0.279871 -0.95657544,0.279871 -0.6641724,0 -0.8813861,-0.292403 -0.2172136,-0.29658 -0.075189,-1.002524 z"
         style="font-style:italic;font-variant:normal;font-weight:normal;font-stretch:normal;font-family:FreeSerif;-inkscape-font-specification:'FreeSerif Italic';text-align:end;text-anchor:end;fill:#666666;stroke-width:0.21387188"
         id="path3402" />
      <path
         d="m 1.2777866,56.892564 q 0.4154211,0 0.621774,-0.456149 0.206353,-0.456148 0.206353,-1.376591 0,-0.923158 -0.206353,-1.379307 -0.2063529,-0.456148 -0.621774,-0.456148 -0.41542104,0 -0.62177399,0.456148 -0.20635295,0.456149 -0.20635295,1.379307 0,0.920443 0.20635295,1.376591 0.20635295,0.456149 0.62177399,0.456149 z m 0,0.268802 q -0.65978637,0 -1.03176471,-0.553895 -0.36926318,-0.553895 -0.36926318,-1.547647 0,-0.996468 0.36926318,-1.550362 0.37197834,-0.553895 1.03176471,-0.553895 0.6625016,0 1.0317648,0.553895 0.3692631,0.553894 0.3692631,1.550362 0,0.993752 -0.3692631,1.547647 -0.3692632,0.553895 -1.0317648,0.553895 z"
         style="font-size:64.99999762%;baseline-shift:sub;fill:#666666"
         id="path3404" />
      <path
         d="m 9.6925179,50.008145 v 2.343401 H 12.035919 V 53.02825 H 9.6925179 v 2.343401 H 9.0241683 V 53.02825 H 6.6807674 v -0.676704 h 2.3434009 v -2.343401 z"
         style="font-style:normal;font-variant:normal;font-weight:normal;font-stretch:normal;font-family:FreeSerif;-inkscape-font-specification:FreeSerif;text-align:end;text-anchor:end;fill:#666666;stroke-width:0.21387188"
         id="path3406" />
      <path
         d="M 16.760316,50.622191 H 16.292471 V 49.51106 q 0.446959,-0.2381 0.898095,-0.363415 0.455313,-0.125316 0.88974,-0.125316 0.973284,0 1.537204,0.472022 0.56392,0.472022 0.56392,1.282396 0,0.914803 -1.278218,2.188845 -0.100253,0.09607 -0.150379,0.146201 l -1.574799,1.574799 H 19.78042 V 53.91799 h 0.488731 v 1.453661 h -4.022629 v -0.455313 l 1.892265,-1.888088 q 0.626577,-0.626578 0.893917,-1.148726 0.26734,-0.526326 0.26734,-1.102777 0,-0.630755 -0.329997,-0.985816 -0.325821,-0.355061 -0.902272,-0.355061 -0.597338,0 -0.923158,0.296581 -0.325821,0.29658 -0.384301,0.88974 z"
         style="font-style:normal;font-variant:normal;font-weight:normal;font-stretch:normal;font-family:FreeSerif;-inkscape-font-specification:FreeSerif;text-align:end;text-anchor:end;fill:#666666;stroke-width:0.21387188"
         id="path3408" />
      <path
         d="m 21.3218,55.371651 2.539729,-5.793756 h 0.142024 l 2.397705,5.793756 z m 4.08111,-0.355061 -1.69176,-4.160477 -1.829607,4.160477 z"
         style="font-style:normal;font-variant:normal;font-weight:normal;font-stretch:normal;font-family:FreeSerif;-inkscape-font-specification:FreeSerif;fill:#666666"
         id="path3410" />
      <path
         d="m 28.331119,51.378262 h -0.676704 l 0.0919,-0.446959 h 0.676704 l 0.275694,-1.378471 h 0.772779 l -0.275694,1.378471 h 1.445306 l -0.0919,0.446959 h -1.445306 l -0.56392,2.8196 q -0.112784,0.56392 -0.0376,0.722653 0.07937,0.158733 0.37177,0.158733 0.300757,0 0.472022,-0.175442 0.175441,-0.179619 0.263162,-0.576452 h 0.580629 q -0.154556,0.605692 -0.509616,0.885564 -0.350884,0.279871 -0.956576,0.279871 -0.664172,0 -0.881386,-0.292403 -0.217214,-0.29658 -0.07519,-1.002524 z"
         style="font-style:italic;font-variant:normal;font-weight:normal;font-stretch:normal;font-family:FreeSerif;-inkscape-font-specification:'FreeSerif Italic';fill:#666666"
         id="path3412" />
    </g>
    <g
       aria-label="t0 + 3t"
       style="font-style:normal;font-weight:normal;font-size:8.55487537px;line-height:1.25;font-family:sans-serif;text-align:end;letter-spacing:0px;word-spacing:0px;text-anchor:end;fill:#666666;fill-opacity:1;stroke:none;stroke-width:0.21387188"
       id="text1538">
      <path
         d="m -2.2107896,65.329739 h -0.676704 l 0.091898,-0.446959 h 0.676704 l 0.2756942,-1.378471 H -1.070418 L -1.3461123,64.88278 H 0.09919384 L 0.00729577,65.329739 H -1.4380103 l -0.56392,2.8196 q -0.112784,0.56392 -0.037595,0.722653 0.079366,0.158733 0.3717695,0.158733 0.3007573,0 0.4720219,-0.175442 0.1754418,-0.179619 0.26316269,-0.576452 h 0.58062875 q -0.15455586,0.605692 -0.5096166,0.885564 -0.35088354,0.279871 -0.95657544,0.279871 -0.6641724,0 -0.8813861,-0.292403 -0.2172136,-0.29658 -0.075189,-1.002524 z"
         style="font-style:italic;font-variant:normal;font-weight:normal;font-stretch:normal;font-family:FreeSerif;-inkscape-font-specification:'FreeSerif Italic';text-align:end;text-anchor:end;fill:#666666;stroke-width:0.21387188"
         id="path3389" />
      <path
         d="m 1.2777866,70.844041 q 0.4154211,0 0.621774,-0.456149 0.206353,-0.456148 0.206353,-1.376591 0,-0.923158 -0.206353,-1.379307 -0.2063529,-0.456148 -0.621774,-0.456148 -0.41542104,0 -0.62177399,0.456148 -0.20635295,0.456149 -0.20635295,1.379307 0,0.920443 0.20635295,1.376591 0.20635295,0.456149 0.62177399,0.456149 z m 0,0.268802 q -0.65978637,0 -1.03176471,-0.553895 -0.36926318,-0.553895 -0.36926318,-1.547647 0,-0.996468 0.36926318,-1.550362 0.37197834,-0.553895 1.03176471,-0.553895 0.6625016,0 1.0317648,0.553895 0.3692631,0.553894 0.3692631,1.550362 0,0.993752 -0.3692631,1.547647 -0.3692632,0.553895 -1.0317648,0.553895 z"
         style="font-size:64.99999762%;baseline-shift:sub;fill:#666666"
         id="path3391" />
      <path
         d="m 9.6925179,63.959622 v 2.343401 h 2.3434011 v 0.676704 H 9.6925179 v 2.343401 H 9.0241683 V 66.979727 H 6.6807674 v -0.676704 h 2.3434009 v -2.343401 z"
         style="font-style:normal;font-variant:normal;font-weight:normal;font-stretch:normal;font-family:FreeSerif;-inkscape-font-specification:FreeSerif;text-align:end;text-anchor:end;fill:#666666;stroke-width:0.21387188"
         id="path3393" />
      <path
         d="m 16.497153,63.349753 q 0.488731,-0.183796 0.935689,-0.279872 0.451136,-0.09607 0.843792,-0.09607 0.914803,0 1.428597,0.396833 0.513794,0.392655 0.513794,1.094422 0,0.56392 -0.355061,0.944044 -0.355061,0.375947 -1.006701,0.509617 0.768602,0.108607 1.190497,0.559743 0.426073,0.446958 0.426073,1.161257 0,0.873032 -0.588983,1.340877 -0.584806,0.463667 -1.687583,0.463667 -0.48873,0 -0.956575,-0.10443 -0.463668,-0.104429 -0.923158,-0.317466 v -1.211383 h 0.467845 q 0.04177,0.601514 0.405187,0.910626 0.363415,0.309112 1.02341,0.309112 0.639109,0 1.006702,-0.367593 0.371769,-0.371769 0.371769,-1.015056 0,-0.735184 -0.380124,-1.111131 -0.380124,-0.380124 -1.115308,-0.380124 h -0.396833 v -0.426073 h 0.20886 q 0.731007,0 1.094422,-0.300757 0.367592,-0.304934 0.367592,-0.914803 0,-0.547212 -0.300757,-0.835438 -0.300757,-0.292402 -0.864677,-0.292402 -0.56392,0 -0.877209,0.267339 -0.309112,0.26734 -0.363415,0.793666 h -0.467845 z"
         style="font-style:normal;font-variant:normal;font-weight:normal;font-stretch:normal;font-family:FreeSerif;-inkscape-font-specification:FreeSerif;text-align:end;text-anchor:end;fill:#666666;stroke-width:0.21387188"
         id="path3395" />
      <path
         d="m 21.3218,69.323128 2.539729,-5.793756 h 0.142024 l 2.397705,5.793756 z m 4.08111,-0.355061 -1.69176,-4.160476 -1.829607,4.160476 z"
         style="font-style:normal;font-variant:normal;font-weight:normal;font-stretch:normal;font-family:FreeSerif;-inkscape-font-specification:FreeSerif;fill:#666666"
         id="path3397" />
      <path
         d="m 28.331119,65.329739 h -0.676704 l 0.0919,-0.446959 h 0.676704 l 0.275694,-1.378471 h 0.772779 l -0.275694,1.378471 h 1.445306 l -0.0919,0.446959 h -1.445306 l -0.56392,2.8196 q -0.112784,0.56392 -0.0376,0.722653 0.07937,0.158733 0.37177,0.158733 0.300757,0 0.472022,-0.175442 0.175441,-0.179619 0.263162,-0.576452 h 0.580629 q -0.154556,0.605692 -0.509616,0.885564 -0.350884,0.279871 -0.956576,0.279871 -0.664172,0 -0.881386,-0.292403 -0.217214,-0.29658 -0.07519,-1.002524 z"
         style="font-style:italic;font-variant:normal;font-weight:normal;font-stretch:normal;font-family:FreeSerif;-inkscape-font-specification:'FreeSerif Italic';fill:#666666"
         id="path3399" />
    </g>
    <g
       aria-label="t0 + 4t"
       style="font-style:normal;font-weight:normal;font-size:8.55487537px;line-height:1.25;font-family:sans-serif;text-align:end;letter-spacing:0px;word-spacing:0px;text-anchor:end;fill:#666666;fill-opacity:1;stroke:none;stroke-width:0.21387188"
       id="text1550">
      <path
         d="m -2.2107896,79.281193 h -0.676704 l 0.091898,-0.446959 h 0.676704 l 0.2756942,-1.378471 h 0.7727793 l -0.2756943,1.378471 H 0.09919384 L 0.00729577,79.281193 H -1.4380103 l -0.56392,2.8196 q -0.112784,0.56392 -0.037595,0.722653 0.079366,0.158733 0.3717695,0.158733 0.3007573,0 0.4720219,-0.175442 0.1754418,-0.179619 0.26316269,-0.576451 h 0.58062875 q -0.15455586,0.605691 -0.5096166,0.885563 -0.35088354,0.279871 -0.95657544,0.279871 -0.6641724,0 -0.8813861,-0.292403 -0.2172136,-0.29658 -0.075189,-1.002524 z"
         style="font-style:italic;font-variant:normal;font-weight:normal;font-stretch:normal;font-family:FreeSerif;-inkscape-font-specification:'FreeSerif Italic';text-align:end;text-anchor:end;fill:#666666;stroke-width:0.21387188"
         id="path3376" />
      <path
         d="m 1.2777866,84.795495 q 0.4154211,0 0.621774,-0.456149 0.206353,-0.456148 0.206353,-1.376591 0,-0.923158 -0.206353,-1.379307 Q 1.6932077,81.1273 1.2777866,81.1273 q -0.41542104,0 -0.62177399,0.456148 -0.20635295,0.456149 -0.20635295,1.379307 0,0.920443 0.20635295,1.376591 0.20635295,0.456149 0.62177399,0.456149 z m 0,0.268802 q -0.65978637,0 -1.03176471,-0.553895 -0.36926318,-0.553895 -0.36926318,-1.547647 0,-0.996468 0.36926318,-1.550362 0.37197834,-0.553895 1.03176471,-0.553895 0.6625016,0 1.0317648,0.553895 0.3692631,0.553894 0.3692631,1.550362 0,0.993752 -0.3692631,1.547647 -0.3692632,0.553895 -1.0317648,0.553895 z"
         style="font-size:64.99999762%;baseline-shift:sub;fill:#666666"
         id="path3378" />
      <path
         d="m 9.6925179,77.911076 v 2.343401 h 2.3434011 v 0.676704 H 9.6925179 v 2.343401 H 9.0241683 V 80.931181 H 6.6807674 v -0.676704 h 2.3434009 v -2.343401 z"
         style="font-style:normal;font-variant:normal;font-weight:normal;font-stretch:normal;font-family:FreeSerif;-inkscape-font-specification:FreeSerif;text-align:end;text-anchor:end;fill:#666666;stroke-width:0.21387188"
         id="path3380" />
      <path
         d="m 18.65258,81.160926 v -3.316685 l -2.130364,3.316685 z m 1.837962,2.113656 H 17.650056 V 82.8318 h 1.002524 v -1.223915 h -2.723524 v -0.455313 l 2.731879,-4.227312 h 0.827083 v 4.235666 h 1.190497 v 0.446959 H 19.488018 V 82.8318 h 1.002524 z"
         style="font-style:normal;font-variant:normal;font-weight:normal;font-stretch:normal;font-family:FreeSerif;-inkscape-font-specification:FreeSerif;text-align:end;text-anchor:end;fill:#666666;stroke-width:0.21387188"
         id="path3382" />
      <path
         d="m 21.3218,83.274582 2.539729,-5.793756 h 0.142024 l 2.397705,5.793756 z m 4.08111,-0.355061 -1.69176,-4.160476 -1.829607,4.160476 z"
         style="font-style:normal;font-variant:normal;font-weight:normal;font-stretch:normal;font-family:FreeSerif;-inkscape-font-specification:FreeSerif;fill:#666666"
         id="path3384" />
      <path
         d="m 28.331119,79.281193 h -0.676704 l 0.0919,-0.446959 h 0.676704 l 0.275694,-1.378471 h 0.772779 l -0.275694,1.378471 h 1.445306 l -0.0919,0.446959 h -1.445306 l -0.56392,2.8196 q -0.112784,0.56392 -0.0376,0.722653 0.07937,0.158733 0.37177,0.158733 0.300757,0 0.472022,-0.175442 0.175441,-0.179619 0.263162,-0.576451 h 0.580629 q -0.154556,0.605691 -0.509616,0.885563 -0.350884,0.279871 -0.956576,0.279871 -0.664172,0 -0.881386,-0.292403 -0.217214,-0.29658 -0.07519,-1.002524 z"
         style="font-style:italic;font-variant:normal;font-weight:normal;font-stretch:normal;font-family:FreeSerif;-inkscape-font-specification:'FreeSerif Italic';fill:#666666"
         id="path3386" />
    </g>
    <g
       aria-label="t0 + 5t"
       style="font-style:normal;font-weight:normal;font-size:8.55487537px;line-height:1.25;font-family:sans-serif;text-align:end;letter-spacing:0px;word-spacing:0px;text-anchor:end;fill:#666666;fill-opacity:1;stroke:none;stroke-width:0.21387188"
       id="text1562">
      <path
         d="m -2.2107896,93.23267 h -0.676704 l 0.091898,-0.446959 h 0.676704 l 0.2756942,-1.378471 h 0.7727793 l -0.2756943,1.378471 H 0.09919384 L 0.00729577,93.23267 H -1.4380103 l -0.56392,2.8196 q -0.112784,0.56392 -0.037595,0.722653 0.079366,0.158733 0.3717695,0.158733 0.3007573,0 0.4720219,-0.175442 0.1754418,-0.179619 0.26316269,-0.576451 h 0.58062875 q -0.15455586,0.605692 -0.5096166,0.885563 -0.35088354,0.279871 -0.95657544,0.279871 -0.6641724,0 -0.8813861,-0.292403 -0.2172136,-0.29658 -0.075189,-1.002524 z"
         style="font-style:italic;font-variant:normal;font-weight:normal;font-stretch:normal;font-family:FreeSerif;-inkscape-font-specification:'FreeSerif Italic';text-align:end;text-anchor:end;fill:#666666;stroke-width:0.21387188"
         id="path3363" />
      <path
         d="m 1.2777866,98.746972 q 0.4154211,0 0.621774,-0.456149 0.206353,-0.456148 0.206353,-1.376591 0,-0.923158 -0.206353,-1.379306 -0.2063529,-0.456149 -0.621774,-0.456149 -0.41542104,0 -0.62177399,0.456149 -0.20635295,0.456148 -0.20635295,1.379306 0,0.920443 0.20635295,1.376591 0.20635295,0.456149 0.62177399,0.456149 z m 0,0.268802 q -0.65978637,0 -1.03176471,-0.553895 -0.36926318,-0.553895 -0.36926318,-1.547647 0,-0.996467 0.36926318,-1.550362 0.37197834,-0.553895 1.03176471,-0.553895 0.6625016,0 1.0317648,0.553895 0.3692631,0.553895 0.3692631,1.550362 0,0.993752 -0.3692631,1.547647 -0.3692632,0.553895 -1.0317648,0.553895 z"
         style="font-size:64.99999762%;baseline-shift:sub;fill:#666666"
         id="path3365" />
      <path
         d="m 9.6925179,91.862553 v 2.343401 h 2.3434011 v 0.676704 H 9.6925179 v 2.343401 H 9.0241683 V 94.882658 H 6.6807674 v -0.676704 h 2.3434009 v -2.343401 z"
         style="font-style:normal;font-variant:normal;font-weight:normal;font-stretch:normal;font-family:FreeSerif;-inkscape-font-specification:FreeSerif;text-align:end;text-anchor:end;fill:#666666;stroke-width:0.21387188"
         id="path3367" />
      <path
         d="m 19.968394,90.989521 v 0.685059 h -2.857195 v 1.787835 q 0.217214,-0.150379 0.50544,-0.225568 0.292403,-0.07519 0.65164,-0.07519 1.010879,0 1.595685,0.559743 0.584806,0.559742 0.584806,1.528849 0,0.989993 -0.59316,1.545559 -0.588983,0.551388 -1.658343,0.551388 -0.43025,0 -0.881386,-0.104429 -0.451136,-0.10443 -0.923158,-0.317466 v -1.211384 h 0.472022 q 0.03759,0.59316 0.375947,0.906449 0.342529,0.313289 0.956575,0.313289 0.659996,0 1.015056,-0.434427 0.355061,-0.434428 0.355061,-1.248979 0,-0.810374 -0.355061,-1.240624 -0.350883,-0.434427 -1.015056,-0.434427 -0.375946,0 -0.664172,0.13367 -0.284049,0.13367 -0.50544,0.413541 h -0.359238 v -3.132889 z"
         style="font-style:normal;font-variant:normal;font-weight:normal;font-stretch:normal;font-family:FreeSerif;-inkscape-font-specification:FreeSerif;text-align:end;text-anchor:end;fill:#666666;stroke-width:0.21387188"
         id="path3369" />
      <path
         d="m 21.3218,97.226059 2.539729,-5.793756 h 0.142024 l 2.397705,5.793756 z m 4.08111,-0.355061 -1.69176,-4.160476 -1.829607,4.160476 z"
         style="font-style:normal;font-variant:normal;font-weight:normal;font-stretch:normal;font-family:FreeSerif;-inkscape-font-specification:FreeSerif;fill:#666666"
         id="path3371" />
      <path
         d="m 28.331119,93.23267 h -0.676704 l 0.0919,-0.446959 h 0.676704 l 0.275694,-1.378471 h 0.772779 l -0.275694,1.378471 h 1.445306 l -0.0919,0.446959 h -1.445306 l -0.56392,2.8196 q -0.112784,0.56392 -0.0376,0.722653 0.07937,0.158733 0.37177,0.158733 0.300757,0 0.472022,-0.175442 0.175441,-0.179619 0.263162,-0.576451 h 0.580629 q -0.154556,0.605692 -0.509616,0.885563 -0.350884,0.279871 -0.956576,0.279871 -0.664172,0 -0.881386,-0.292403 -0.217214,-0.29658 -0.07519,-1.002524 z"
         style="font-style:italic;font-variant:normal;font-weight:normal;font-stretch:normal;font-family:FreeSerif;-inkscape-font-specification:'FreeSerif Italic';fill:#666666"
         id="path3373" />
    </g>
    <circle
       style="fill:#000000;fill-opacity:1;stroke:none;stroke-width:1.13522589;stroke-miterlimit:4;stroke-dasharray:none"
       id="path1998"
       r="1.2775214"
       cy="108.88428"
       cx="79.973228" />
    <circle
       cx="79.973228"
       cy="114.90355"
       r="1.2775214"
       id="circle2000"
       style="fill:#000000;fill-opacity:1;stroke:none;stroke-width:1.13522589;stroke-miterlimit:4;stroke-dasharray:none" />
    <circle
       style="fill:#000000;fill-opacity:1;stroke:none;stroke-width:1.13522589;stroke-miterlimit:4;stroke-dasharray:none"
       id="circle2002"
       r="1.2775214"
       cy="120.92282"
       cx="79.973228" />
  </g>
</svg>
